<?xml version="1.0" encoding="iso-8859-1"?>
<!-- Generator: Adobe Illustrator 19.0.0, SVG Export Plug-In . SVG Version: 6.00 Build 0)  -->
<svg version="1.1" id="Layer_1" xmlns="http://www.w3.org/2000/svg" xmlns:xlink="http://www.w3.org/1999/xlink" x="0px" y="0px"
	 viewBox="0 0 511.999 511.999" style="enable-background:new 0 0 511.999 511.999;" xml:space="preserve">
<g>
	<g>
		<g>
			<path d="M424.639,134.782h-24.501c-3.722-18.488-20.086-32.454-39.654-32.454h-9.051l10.736-73.264
				c2.029-13.848-7.586-26.766-21.44-28.798c-13.841-2.013-26.762,7.599-28.789,21.436l-11.814,80.625H151.516
				c-19.568,0-35.932,13.967-39.654,32.454H87.36c-12.079,0-21.906,9.828-21.906,21.907v38.243c0,12.078,9.827,21.905,21.906,21.905
				h3.023l12.683,96.095c-2.462,0.994-4.676,2.515-6.432,4.517c-3.248,3.706-4.729,8.73-4.061,13.784l14.753,111.778
				c1.08,8.18,7.351,14.866,15.138,16.882l4.14,31.368c1.534,11.628,11.925,20.738,23.657,20.738H361.74
				c11.73,0,22.121-9.11,23.657-20.738l4.14-31.37c7.783-2.018,14.05-8.703,15.129-16.88l14.753-111.778
				c0.666-5.054-0.814-10.078-4.061-13.784c-1.755-2.001-3.966-3.523-6.426-4.515l12.683-96.097h3.023
				c12.079,0,21.906-9.827,21.906-21.905v-38.243C446.546,144.61,436.718,134.782,424.639,134.782z M327.764,24.022
				c0.75-5.121,5.524-8.682,10.651-7.93c5.123,0.751,8.681,5.53,7.93,10.652l-11.076,75.584h-18.982L327.764,24.022z
				 M151.516,118.32h208.968c10.685,0,19.788,6.892,23.109,16.461H128.408C131.729,125.212,140.83,118.32,151.516,118.32z
				 M127.312,444.539L127.312,444.539c-1.843,0-3.888-1.793-4.129-3.621L108.43,329.141c-0.047-0.35-0.044-0.834,0.231-1.147
				c0.275-0.315,0.754-0.38,1.108-0.38h124.866c-23.828,8.733-40.877,31.645-40.877,58.462c0,26.818,17.05,49.73,40.878,58.464
				H127.312z M255.997,339.829c25.501,0,46.246,20.746,46.246,46.246c0,25.501-20.746,46.248-46.246,46.248
				s-46.247-20.747-46.247-46.248C209.75,360.575,230.497,339.829,255.997,339.829z M369.542,489.169
				c-0.472,3.578-4.191,6.838-7.801,6.838H150.262c-3.611,0-7.33-3.259-7.801-6.838l-3.779-28.636h234.64L369.542,489.169z
				 M403.565,329.142L388.812,440.92c-0.241,1.827-2.287,3.621-4.129,3.621H277.359c23.828-8.734,40.878-31.646,40.878-58.464
				c0-26.817-17.048-49.729-40.877-58.462h124.867c0.353,0,0.832,0.065,1.108,0.38C403.609,328.308,403.611,328.792,403.565,329.142
				z M392.975,311.621H119.027l-12.51-94.784h298.968L392.975,311.621z M430.554,194.933h-0.001c0,3.26-2.653,5.912-5.913,5.912
				H87.362c-3.26,0-5.913-2.652-5.913-5.912v-38.243c0-3.261,2.653-5.914,5.913-5.914h337.279c3.26,0,5.913,2.653,5.913,5.914
				V194.933z"/>
			<path d="M312.742,261.71c4.416,0,7.997-3.579,7.997-7.996c0-3.575,2.909-6.482,6.482-6.482c3.575,0,6.482,2.907,6.482,6.482
				c0,4.417,3.58,7.996,7.997,7.996c4.416,0,7.996-3.579,7.996-7.996c0-12.393-10.083-22.475-22.475-22.475
				c-12.393,0-22.475,10.082-22.475,22.475C304.745,258.13,308.326,261.71,312.742,261.71z"/>
			<path d="M169.29,296.801h30.978c4.416,0,7.996-3.579,7.996-7.996c0-4.417-3.58-7.997-7.996-7.997H169.29
				c-4.416,0-7.996,3.579-7.996,7.997C161.294,293.221,164.874,296.801,169.29,296.801z"/>
			<path d="M241.606,284.483c5.479,0,10.498-1.984,14.394-5.265c3.896,3.28,8.914,5.265,14.394,5.265
				c12.347,0,22.39-10.045,22.39-22.39c0-4.417-3.58-7.996-7.996-7.996s-7.997,3.579-7.997,7.996c0,3.528-2.869,6.397-6.397,6.397
				c-3.528,0-6.397-2.869-6.397-6.397c0-4.417-3.58-7.996-7.996-7.996s-7.996,3.579-7.996,7.996c0,3.528-2.869,6.397-6.397,6.397
				s-6.397-2.869-6.397-6.397c0-4.417-3.58-7.996-7.996-7.996s-7.996,3.579-7.996,7.996
				C219.216,274.438,229.261,284.483,241.606,284.483z"/>
			<path d="M170.301,261.71c4.416,0,7.997-3.579,7.997-7.996c0-3.575,2.909-6.482,6.482-6.482c3.574,0,6.482,2.907,6.482,6.482
				c0,4.417,3.58,7.996,7.996,7.996s7.997-3.579,7.997-7.996c0-12.393-10.083-22.475-22.475-22.475
				c-12.393,0-22.475,10.082-22.475,22.475C162.305,258.13,165.884,261.71,170.301,261.71z"/>
			<path d="M311.732,296.801h30.978c4.416,0,7.997-3.579,7.997-7.996c0-4.417-3.58-7.997-7.997-7.997h-30.978
				c-4.416,0-7.997,3.579-7.997,7.997C303.736,293.221,307.316,296.801,311.732,296.801z"/>
			<path d="M248.8,419.661c2.602,0,5.054-0.657,7.197-1.815c2.143,1.158,4.595,1.815,7.197,1.815c7.198,0,13.51-2.936,17.772-8.267
				c4.3-5.377,6.479-12.997,6.479-22.652c0-19.371-12.013-38.383-24.253-38.383c-2.602,0-5.054,0.657-7.197,1.815
				c-2.143-1.158-4.595-1.815-7.197-1.815c-12.24,0-24.253,19.012-24.253,38.383c0,9.655,2.179,17.276,6.479,22.652
				C235.29,416.724,241.602,419.661,248.8,419.661z M263.993,367.636c3.067,3.252,7.46,11.293,7.46,21.105
				c0,13.307-4.941,14.751-7.46,14.906V367.636z M248,367.636v36.012c-2.519-0.156-7.46-1.599-7.46-14.906
				C240.54,378.929,244.933,370.888,248,367.636z"/>
		</g>
	</g>
</g>
<g>
</g>
<g>
</g>
<g>
</g>
<g>
</g>
<g>
</g>
<g>
</g>
<g>
</g>
<g>
</g>
<g>
</g>
<g>
</g>
<g>
</g>
<g>
</g>
<g>
</g>
<g>
</g>
<g>
</g>
</svg>
