<?xml version="1.0" encoding="iso-8859-1"?>
<!-- Generator: Adobe Illustrator 16.0.0, SVG Export Plug-In . SVG Version: 6.00 Build 0)  -->
<!DOCTYPE svg PUBLIC "-//W3C//DTD SVG 1.1//EN" "http://www.w3.org/Graphics/SVG/1.1/DTD/svg11.dtd">
<svg version="1.1" id="Capa_1" xmlns="http://www.w3.org/2000/svg" xmlns:xlink="http://www.w3.org/1999/xlink" x="0px" y="0px"
	 width="980px" height="980px" viewBox="0 0 980 980" style="enable-background:new 0 0 980 980;" xml:space="preserve">
<g>
	<path d="M965,197.258H15c-8.284,0-15,6.716-15,15v555.483c0,5.845,3.396,11.158,8.7,13.612c5.309,2.455,11.555,1.604,16.009-2.179
		l88.7-75.319h753.182l88.7,75.319c2.765,2.349,6.22,3.566,9.712,3.566c2.135,0,4.284-0.456,6.297-1.388
		c5.306-2.455,8.7-7.768,8.7-13.612V212.258C980,203.975,973.284,197.258,965,197.258z M857.144,673.858h-35.307l-17.979-17.979
		l37.74-37.741l16.085,16.086C857.401,647.216,857.22,660.428,857.144,673.858z M214.906,227.258l18.252,18.252l-37.741,37.741
		l-37.741-37.741l18.252-18.252H214.906z M332.812,227.258l18.253,18.252l-37.741,37.741l-37.741-37.741l18.252-18.252H332.812z
		 M450.72,227.258l18.252,18.252l-37.74,37.741L393.49,245.51l18.252-18.252H450.72z M568.627,227.258l18.252,18.252l-37.741,37.741
		l-37.741-37.741l18.253-18.252H568.627z M686.535,227.258l18.252,18.252l-37.741,37.741l-37.741-37.741l18.252-18.252H686.535z
		 M804.442,227.258l18.252,18.252l-37.741,37.741l-37.741-37.741l18.252-18.252H804.442z M88.605,336.773l26.645,26.645
		l-16.888,16.888C95.374,365.054,92.116,350.54,88.605,336.773z M873.074,430.947l-29.167,29.167l-37.741-37.741l37.741-37.741
		l31.426,31.426C874.557,420.96,873.801,425.917,873.074,430.947z M106.865,430.515c-0.692-4.772-1.411-9.479-2.147-14.139
		l31.745-31.745l37.741,37.741l-37.741,37.741L106.865,430.515z M195.417,443.584l37.741,37.741l-37.741,37.741l-37.741-37.741
		L195.417,443.584z M216.63,422.373l37.741-37.741l37.741,37.741l-37.741,37.741L216.63,422.373z M313.324,443.584l37.741,37.741
		l-37.741,37.741l-37.741-37.741L313.324,443.584z M334.537,422.372l37.741-37.741l37.74,37.741l-37.74,37.741L334.537,422.372z
		 M431.231,443.584l37.74,37.741l-37.74,37.741l-37.741-37.741L431.231,443.584z M452.444,422.372l37.74-37.741l37.741,37.741
		l-37.741,37.741L452.444,422.372z M549.139,443.584l37.741,37.741l-37.741,37.741l-37.74-37.741L549.139,443.584z M570.352,422.372
		l37.741-37.741l37.741,37.741l-37.741,37.741L570.352,422.372z M667.046,443.584l37.741,37.741l-37.741,37.741l-37.741-37.741
		L667.046,443.584z M688.259,422.372L726,384.631l37.741,37.741L726,460.113L688.259,422.372z M784.953,443.584l37.741,37.741
		l-37.741,37.741l-37.741-37.741L784.953,443.584z M784.953,401.16l-37.741-37.741l37.741-37.741l37.741,37.741L784.953,401.16z
		 M726,342.206l-37.741-37.741L726,266.724l37.741,37.741L726,342.206z M704.787,363.418l-37.741,37.741l-37.741-37.741
		l37.741-37.741L704.787,363.418z M608.092,342.206l-37.741-37.741l37.741-37.741l37.741,37.741L608.092,342.206z M586.879,363.418
		l-37.741,37.741l-37.741-37.741l37.741-37.741L586.879,363.418z M490.185,342.206l-37.74-37.741l37.74-37.741l37.741,37.741
		L490.185,342.206z M468.972,363.418l-37.74,37.741l-37.741-37.741l37.741-37.741L468.972,363.418z M372.278,342.206l-37.741-37.741
		l37.741-37.741l37.74,37.741L372.278,342.206z M351.065,363.418l-37.741,37.741l-37.741-37.741l37.741-37.741L351.065,363.418z
		 M254.371,342.206l-37.741-37.741l37.741-37.741l37.741,37.741L254.371,342.206z M233.158,363.418l-37.741,37.741l-37.741-37.741
		l37.741-37.741L233.158,363.418z M136.463,342.206l-37.741-37.741l37.741-37.741l37.741,37.741L136.463,342.206z M119.218,556.16
		c-0.682-11.57-1.459-22.919-2.33-34.046l19.575-19.575l37.741,37.741l-35.433,35.433L119.218,556.16z M195.417,561.493
		l37.741,37.741l-35.433,35.433l-37.741-37.741L195.417,561.493z M216.63,540.28l37.741-37.741l37.741,37.741l-37.741,37.74
		L216.63,540.28z M313.324,561.493l37.741,37.741l-37.741,37.74l-37.741-37.74L313.324,561.493z M334.537,540.28l37.741-37.741
		l37.74,37.741l-37.74,37.74L334.537,540.28z M431.231,561.493l37.74,37.741l-37.74,37.74l-37.741-37.74L431.231,561.493z
		 M452.444,540.28l37.74-37.741l37.741,37.741l-37.741,37.74L452.444,540.28z M549.139,561.493l37.741,37.741l-37.741,37.74
		l-37.74-37.74L549.139,561.493z M570.352,540.28l37.741-37.741l37.741,37.741l-37.741,37.74L570.352,540.28z M667.046,561.493
		l37.741,37.741l-37.741,37.74l-37.741-37.74L667.046,561.493z M688.259,540.28L726,502.539l37.741,37.741L726,578.02
		L688.259,540.28z M784.953,561.493l35.433,35.433l-37.741,37.741l-35.433-35.433L784.953,561.493z M806.166,540.28l37.741-37.741
		l19.23,19.23c-0.891,11.364-1.686,22.959-2.38,34.784l-19.159,19.159L806.166,540.28z M865.12,363.418l26.148-26.149
		c-3.438,13.527-6.635,27.769-9.571,42.727L865.12,363.418z M843.907,342.206l-37.741-37.741l37.741-37.741l37.741,37.741
		L843.907,342.206z M115.25,245.51l-37.741,37.741l-8.382-8.383c-8.147-20.93-16.155-36.374-23.125-47.61h50.997L115.25,245.51z
		 M122.323,634.586l16.448-16.448l37.741,37.741l-17.979,17.979h-35.677C122.781,660.552,122.602,647.462,122.323,634.586z
		 M218.938,655.878l35.433-35.433l37.741,37.74l-15.671,15.672h-39.524L218.938,655.878z M334.537,658.186l37.741-37.74l37.74,37.74
		l-15.671,15.672h-44.14L334.537,658.186z M452.444,658.186l37.74-37.74l37.741,37.74l-15.671,15.672h-44.14L452.444,658.186z
		 M570.352,658.186l37.741-37.74l37.741,37.74l-15.671,15.672h-44.14L570.352,658.186z M688.259,658.186L726,620.446l35.433,35.433
		l-17.979,17.979H703.93L688.259,658.186z M910.64,275.473l-7.778,7.779L865.12,245.51l18.252-18.252h49.142h1.484
		c-2.629,4.238-5.405,9.074-8.281,14.578C920.895,251.065,915.793,262.17,910.64,275.473z M30,735.327V260.298
		c6.033,12.146,12.679,27.959,19.308,48.329C84.603,417.09,92.579,570.117,92.889,681.925L30,735.327z M950,735.327l-62.889-53.401
		c0.311-111.809,8.286-264.835,43.581-373.298c6.629-20.37,13.274-36.183,19.308-48.329V735.327z"/>
</g>
<g>
</g>
<g>
</g>
<g>
</g>
<g>
</g>
<g>
</g>
<g>
</g>
<g>
</g>
<g>
</g>
<g>
</g>
<g>
</g>
<g>
</g>
<g>
</g>
<g>
</g>
<g>
</g>
<g>
</g>
</svg>
