<?xml version="1.0"?><svg width="1600" height="1200" xmlns="http://www.w3.org/2000/svg">
 <title>Goal Post enlarged &lt;black&gt;</title>
 <defs>
  <linearGradient y2="0.500001" x2="0.999993" y1="0.500001" x1="-0.000004" id="SVGID_3_">
   <stop stop-color=" rgb(255, 255, 255)" id="stop44" offset="0"/>
   <stop stop-color=" rgb(220, 220, 220)" id="stop46" offset="1"/>
  </linearGradient>
 </defs>
 <metadata id="metadata3375">image/svg+xml</metadata>
 <g>
  <title>Layer 1</title>
  <g id="layer1">
   <path fill="#000000" stroke="#000000" stroke-width="2.709644" id="path28" d="m510.250793,652.938171c0,0 0,-81.323975 0,-99.112793c0,-34.469971 -149.240295,-292.257446 -174.706848,-303.692261c-25.466705,-11.436401 -162.450912,-15.225403 -162.450912,-15.225403l0,25.286652c0,0 136.031387,-4.299255 153.539169,10.401917c21.027008,17.655792 143.1651,239.743439 160.152527,278.414337c6.598969,15.023499 2.685272,108.339478 2.685272,108.339478l20.780792,-4.411926z"/>
   <polygon fill="#000000" stroke="#000000" stroke-width="5" id="polygon35" points="104.348,681.272 97.7252,746.419 509.055,659.128 509.055,642.965"/>
   <path fill="#000000" stroke="#000000" stroke-width="3.387055" id="path37" d="m129.488892,727.513184c-4.428543,17.134338 -49.641045,22.879028 -49.641045,22.879028l50.665062,-498.418549c0,0 2.498947,-11.893127 11.191528,-13.505569c24.287628,-4.500961 24.287628,-4.500961 24.287628,-4.500961l-32.014313,473.372589c0.001556,-0.002686 -1.043701,6.84021 -4.488861,20.173462l0,0z"/>
   <path fill="#000000" stroke="#000000" stroke-width="3.387055" id="path39" d="m515.878357,659.507263c14.850098,-3.149841 978.788757,13.367554 978.788757,13.367554l62.997559,-27.935852c0,0 -1033.100769,-1.146851 -1046.696533,-1.972656c0,-0.002075 -2.495483,18.114685 4.910217,16.540955z"/>
   <path fill="#000000" stroke="#000000" stroke-width="3.387055" id="path41" d="m1151.023926,132.876511c0,0 127.263794,16.668427 162.204468,32.211151c31.802734,14.145386 196.615601,310.793137 218.139038,359.791c8.360718,19.033081 3.401001,137.266113 3.401001,137.266113l26.3302,-5.586975c0,0 0,-103.038513 0,-125.57843c0,-43.673065 -179.843628,-355.573822 -224.89917,-388.690247c-47.503296,-34.916313 -180.966309,-46.64257 -180.966309,-46.64257"/>
   <polyline fill="url(#SVGID_3_)" stroke="#000000" stroke-width="4" id="polyline48" points="1037.9,773.27 1559.06,662.675 1559.06,642.198 1046.29,690.736 1037.9,773.27"/>
   <path stroke="#000000" fill="#010101" id="path50" d="m259.890625,253.89679l53.322754,-4.674469l33.671906,7.458008c0,0 -36.030396,-9.569199 -24.446228,9.068573c4.746185,7.632782 -62.548431,-11.852112 -62.548431,-11.852112z"/>
   <g id="g52">
    <line fill="#000000" stroke="#000000" id="line54" y2="143.586872" x2="1180.315398" y1="674.352654" x1="1140.096741"/>
    <line fill="#000000" stroke="#000000" id="line56" y2="147.882201" x2="1217.845777" y1="674.352654" x1="1180.315398"/>
    <line fill="#000000" stroke="#000000" id="line58" y2="661.572623" x2="1217.845777" y1="160.535819" x1="1258.63354"/>
    <line fill="#000000" stroke="#000000" id="line60" y2="160.535819" x2="1291.970528" y1="662.280339" x1="1267.37111"/>
    <line fill="#000000" stroke="#000000" id="line62" y2="194.060511" x2="1335.697274" y1="657.772852" x1="1314.879149"/>
    <line fill="#000000" stroke="#000000" id="line64" y2="256.086391" x2="1374.180161" y1="653.92617" x1="1355.42416"/>
    <line fill="#000000" stroke="#000000" id="line66" y2="318.193855" x2="1410.146197" y1="649.993887" x1="1396.878663"/>
    <line fill="#000000" stroke="#000000" id="line68" y2="397.803014" x2="1454.541948" y1="645.649547" x1="1442.675631"/>
    <line fill="#000000" stroke="#000000" id="line70" y2="466.094505" x2="1491.31562" y1="642.188388" x1="1479.17608"/>
    <line fill="#000000" stroke="#000000" id="line72" y2="194.060511" x2="1335.697274" y1="170.050493" x1="1140.096741"/>
    <line fill="#000000" stroke="#000000" id="line74" y2="256.086391" x2="1374.180161" y1="233.4225" x1="1129.904966"/>
    <line fill="#000000" stroke="#000000" id="line76" y2="331.222736" x2="1417.523383" y1="318.193855" x1="1140.096741"/>
    <line fill="#000000" stroke="#000000" id="line78" y2="397.803014" x2="1454.541948" y1="397.803014" x1="1118.811652"/>
    <line fill="#000000" stroke="#000000" id="line80" y2="484.093881" x2="1500.726316" y1="496.735241" x1="1118.811652"/>
    <line fill="#000000" stroke="#000000" id="line82" y2="554.141457" x2="1524.556891" y1="567.741423" x1="1107.343014"/>
    <line fill="#000000" stroke="#000000" id="line84" y2="610.02406" x2="1525.213679" y1="630.642265" x1="1115.780785"/>
   </g>
   <path fill="none" stroke="#000000" stroke-width="1.354822" id="path120" d="m100.245399,659.507263"/>
   <path fill="#000000" stroke="#000000" stroke-width="5.419288" id="path122" d="m1039.940674,767.150757c0,0 57.285889,-7.272217 62.897095,-28.986755c4.362793,-16.889038 5.689941,-25.556458 5.689941,-25.556458l40.561157,-599.769722l-44.144287,-5.465012l-65.003906,659.777946"/>
   <path fill="#000000" stroke="#000000" stroke-width="3.387055" id="path129" d="m1155.235229,95.644684c0,0 -992.302658,142.365173 -1005.750565,142.14119c-27.529381,-0.457764 -15.187607,31.456955 -0.343155,29.356522c14.846329,-2.100555 1001.882416,-134.265884 1001.882416,-134.265884l4.21106,-37.231827"/>
   <path fill="none" stroke="#000000" stroke-width="0.677411" id="path131" d="m419.942688,267.240631c150.149536,231.795502 131.895203,180.788269 150.149536,231.795502c18.254333,51.007385 7.301758,116.78125 7.301758,116.78125"/>
   <path fill="none" stroke="#000000" stroke-width="0.677411" id="path133" d="m474.214844,262.974335c150.149292,231.793762 131.894836,180.786469 150.149292,231.793762c18.254211,51.007172 7.301575,116.779449 7.301575,116.779449"/>
   <path fill="none" stroke="#000000" stroke-width="0.677411" id="path135" d="m554.570496,262.974335c150.14917,231.795502 131.894775,180.788147 150.14917,231.795502c18.254456,51.007324 7.30188,116.779419 7.30188,116.779419"/>
   <path fill="none" stroke="#000000" stroke-width="0.677411" id="path137" d="m636.751526,235.007828c150.14917,253.17485 131.894653,197.462082 150.14917,253.17485c18.254456,55.710815 7.301636,127.551025 7.301636,127.551025"/>
   <path fill="none" stroke="#000000" stroke-width="0.677411" id="path139" d="m736.129944,224.077698c150.14917,264.620422 131.894836,206.390045 150.14917,264.620422c18.254456,58.232178 7.301697,133.318787 7.301697,133.318787"/>
   <path fill="none" stroke="#000000" stroke-width="0.677411" id="path141" d="m864.275452,208.884674c150.151245,264.622406 131.89679,206.390106 150.151245,264.622406c18.254211,58.230347 7.301697,133.318542 7.301697,133.318542"/>
   <path fill="none" stroke="#000000" stroke-width="0.677411" id="path143" d="m982.640259,195.934158c47.461548,95.427567 57.300415,134.382492 57.300415,134.382492"/>
   <path fill="none" stroke="#000000" stroke-width="0.677411" id="path145" d="m455.409393,321.519836c592.946808,-70.233429 592.946808,-70.233429 592.946808,-70.233429"/>
   <path fill="none" stroke="#000000" stroke-width="0.677411" id="path147" d="m473.712769,388.076965c566.227905,-57.760223 566.227905,-57.760223 566.227905,-57.760223"/>
   <path fill="none" stroke="#000000" stroke-width="0.677411" id="path149" d="m510.564758,461.389252c534.14032,-57.080933 534.14032,-57.080933 534.14032,-57.080933"/>
   <path fill="none" stroke="#000000" stroke-width="0.677411" id="path151" d="m554.568481,518.539185c466.869812,-13.977783 466.869812,-13.977783 466.869812,-13.977783"/>
   <path fill="none" stroke="#000000" stroke-width="0.677411" id="path153" d="m554.570496,573.647156c486.483826,5.543396 486.483826,5.543396 486.483826,5.543396"/>
   <path fill="none" stroke="#000000" stroke-width="1.354822" d="m1094.100708,768.493225" id="path157"/>
  </g>
 </g>
</svg>