<?xml version="1.0" encoding="utf-8"?>
<!-- Generator: Adobe Illustrator 16.0.4, SVG Export Plug-In . SVG Version: 6.00 Build 0)  -->
<!DOCTYPE svg PUBLIC "-//W3C//DTD SVG 1.0//EN" "http://www.w3.org/TR/2001/REC-SVG-20010904/DTD/svg10.dtd">
<svg version="1.0" xmlns="http://www.w3.org/2000/svg" xmlns:xlink="http://www.w3.org/1999/xlink" x="0px" y="0px" width="512px"
	 height="512px" viewBox="0 0 512 512" enable-background="new 0 0 512 512" xml:space="preserve">
<g id="Layer_1">
	<g>
		<path fill="#CC0000" d="M471.572,341.954c-3.366,40.269-39.183,73.214-79.592,73.214H116.444
			c-40.408,0-76.225-32.945-79.594-73.214L22.247,167.392c-3.368-40.268,26.936-73.214,67.344-73.214h329.243
			c40.408,0,70.711,32.946,67.346,73.214L471.572,341.954z"/>
		<g>
			<path fill="#FFDE17" d="M253.987,344.641c-78.876-5.66-42.407-33.423-77.569-37.063c-37.3-3.858-45.253-0.687-57.378,0
				c-12.131,0.679-7.468-3.958-7.468-3.958s25.228-11.899,50.385-31.723c16.392-12.905,32.406-26.117,39.184-51.314
				c15.851-58.826,30.489-77.343,53.074-75.464c22.584-1.879,37.209,16.646,53.065,75.464c6.789,25.197,22.798,38.41,39.196,51.314
				c25.146,19.824,50.375,31.723,50.375,31.723s4.667,4.637-7.469,3.958c-12.128-0.687-20.503-6.82-57.381,0
				c-37.853,6.994,1.311,31.403-77.571,37.063l-0.215,0.021L253.987,344.641z"/>
		</g>
		<path fill="#414042" d="M72.626,221.694c0,0-18.752-31.669-3.678-52.654c4.905-6.828,25.19-8.216,39.627-5.427
			c9.447,1.822,19.855,4.719,32.977,15.564c2.404,1.979,2.453,9.276,3.323,5.775c2.335-9.328-20.692-23.381-30.263-26.417
			c-29.797-9.446-51.028,6.762-51.523,8.925c-0.917,3.949-2.471,23.966-1.137,33.413C62.775,206.667,72.626,221.694,72.626,221.694z
			"/>
		<path fill="#414042" d="M319.268,293.134c-3.083,7.398-7.671,15.992-12.5,24.516c-3.079,9.486-9.517,25.99-19.381,36.401
			c-1.577,1.644-2.942,3.455-4.209,5.441c-2.738,5.959-4.934,11.645-6.745,17.054c-13.833,40.85-6.001,60.48-23.011,73.312
			c-17.648-12.832-9.211-32.323-22.908-72.972c-1.885-5.577-4.178-11.468-7.022-17.63c-0.034-0.036-0.067-0.105-0.067-0.137
			c-1.197-1.815-2.501-3.529-3.972-5.069c-9.896-10.441-16.365-27.084-19.483-36.537c-4.761-8.458-9.284-16.946-12.325-24.275
			c-5.721-8.151-10.308-16.299-3.153-20.581c16.576-9.963,35.716-54.103,47.769-76.326c3.391-6.263,6.2-10.788,8.251-12.327
			c4.039-3.044,8.183-4.552,12.085-5.064c0.276,0.032,0.547,0.067,0.825,0.135c0.272-0.068,0.514-0.104,0.787-0.135
			c3.94,0.512,8.079,2.02,12.122,5.064c2.021,1.54,4.862,6.064,8.253,12.327c12.016,22.223,31.193,66.362,47.765,76.326
			C329.47,276.94,324.954,284.983,319.268,293.134z"/>
		<path fill="#FFDE17" d="M163.153,198.548c0,0-5.994,7.882-6.538,10.344c-0.546,2.463-30.917,64.952-88.121,17.853
			c0,0-18.562-22.859-10.862-52.157c0.634-2.419-0.779-8.049,1.057-9.902c26.148-26.412,88.051-10.343,99.286,16.44
			C159.745,185.34,163.153,198.548,163.153,198.548z"/>
		<path fill="#414042" d="M71.56,222.865c0,0-21.899-33.432-4.291-55.597c5.721-7.198,29.413-8.665,46.271-5.724
			c11.035,1.928,23.189,4.987,38.512,16.439c2.804,2.098,2.861,9.793,3.882,6.095c2.724-9.852-24.164-24.685-35.345-27.889
			c-34.797-9.976-59.585,7.141-60.17,9.418c-1.069,4.169-2.88,25.31-1.321,35.279C60.057,207.001,71.56,222.865,71.56,222.865z"/>
		<path fill="#414042" d="M141.358,192.268c0,14.212-11.219,25.735-25.057,25.735c-13.843,0-25.061-11.522-25.061-25.735
			c0-14.215,11.218-25.736,25.061-25.736C130.14,166.531,141.358,178.053,141.358,192.268z"/>
		<path opacity="0.8" fill="#F1F2F2" d="M64.613,190.913c2.657-57.01,73.288-8.05,71.299-6.833
			c-11.577,7.079-30.848,6.28-37.181,2.584c-6.334-3.692-14.71-6.092-21.043-3.139C71.354,186.481,64.417,195.133,64.613,190.913z"
			/>
		<path fill="#FFDE17" d="M343.685,198.548c0,0,5.992,7.882,6.539,10.344c0.545,2.463,30.915,64.952,88.121,17.853
			c0,0,18.559-22.859,10.861-52.157c-0.633-2.419,0.778-8.049-1.055-9.902c-26.148-26.412-88.053-10.343-99.289,16.44
			C347.094,185.34,343.685,198.548,343.685,198.548z"/>
		<path fill="#414042" d="M435.278,222.865c0,0,21.898-33.432,4.293-55.597c-5.724-7.198-29.416-8.665-46.275-5.724
			c-11.032,1.928-23.189,4.987-38.508,16.439c-2.806,2.098-2.862,9.793-3.882,6.095c-2.726-9.852,24.162-24.685,35.339-27.889
			c34.801-9.976,59.591,7.141,60.173,9.418c1.07,4.169,2.883,25.31,1.321,35.279C446.782,207.001,435.278,222.865,435.278,222.865z"
			/>
		<path fill="#414042" d="M365.476,192.268c0,14.212,11.223,25.735,25.06,25.735c13.843,0,25.064-11.522,25.064-25.735
			c0-14.215-11.221-25.736-25.064-25.736C376.699,166.531,365.476,178.053,365.476,192.268z"/>
		<path opacity="0.9" fill="#F1F2F2" d="M442.227,190.913c-2.656-57.01-73.289-8.05-71.299-6.833
			c11.576,7.079,30.847,6.28,37.179,2.584c6.336-3.692,14.71-6.092,21.044-3.139C435.483,186.481,442.421,195.133,442.227,190.913z"
			/>
		<path opacity="0.8" fill="#F1F2F2" d="M103.913,225.683c-3.758,6.084-18.526,0-24.256-7.758
			c-4.248-5.754-5.569-8.194-1.814-14.279c3.76-6.081,7.624-7.645,13.704-3.889C97.632,203.52,107.672,219.595,103.913,225.683z"/>
		<path opacity="0.5" fill="#00FDFF" d="M488.421,177.379c6.746,50.573-28.781,97.04-79.351,103.784
			c-50.575,6.747-97.039-28.781-103.786-79.354c-6.746-50.571,28.782-97.034,79.355-103.781
			C435.208,91.284,481.674,126.81,488.421,177.379z"/>
		<path opacity="0.5" fill="#FFFFFF" d="M486.998,174.75c6.44,48.259-27.468,92.591-75.719,99.03
			c-48.264,6.441-92.601-27.456-99.036-75.716c-6.438-48.256,27.459-92.597,75.723-99.04
			C436.219,92.589,480.56,126.496,486.998,174.75z"/>
		<path fill="#414042" d="M503.872,244.395c-0.815-6.118-5.116-10.933-10.635-12.717c7.471-17.035,10.524-36.251,7.89-55.993
			c-7.671-57.498-60.685-98.031-118.18-90.361c-57.494,7.668-98.036,60.684-90.366,118.182
			c7.671,57.489,60.693,98.035,118.185,90.363c27.018-3.604,50.289-17.224,66.574-36.615c3.311,3.405,8.134,5.26,13.189,4.587
			C499.017,260.706,505.007,252.885,503.872,244.395z M409.07,281.164c-50.49,6.739-97.052-28.859-103.787-79.353
			c-6.736-50.488,28.866-97.056,79.357-103.791c50.487-6.735,97.045,28.869,103.779,79.359c2.903,21.763-2.059,42.795-12.687,60.223
			c-0.301,0.435-0.583,0.884-0.838,1.347C460.761,261.26,437.233,277.409,409.07,281.164z M489.589,254.779
			c-3.089,0.412-6.011-0.916-7.783-3.227c3.086-4.231,5.859-8.691,8.293-13.345c3.438,0.676,6.223,3.47,6.713,7.131
			C497.427,249.936,494.188,254.166,489.589,254.779z"/>
		<path opacity="0.8" fill="#FFFFFF" d="M409.221,104.454c-10.348,5.819,25.997,14.575,44.894,41.091
			c18.895,26.518,18.771,53.971,22.5,51.246c5.454-3.99,9.7-33.529-9.196-60.046C448.523,110.228,414.895,101.264,409.221,104.454z"
			/>
	</g>
	<g>
		<defs>
			<rect id="SVGID_54_" x="-548.422" y="587.452" width="650.545" height="1144.434"/>
		</defs>
		<clipPath id="SVGID_1_">
			<use xlink:href="#SVGID_54_"  overflow="visible"/>
		</clipPath>
		<path clip-path="url(#SVGID_1_)" d="M-325.537,1938.017l-22.774-772.594l0.189,0.816l37.773,771.151
			C-315.39,1937.649-320.498,1937.859-325.537,1938.017z M-386.234,1937.422c-5.026-0.255-10.125-0.567-15.157-0.926l52.095-769.84
			l0.214-0.86L-386.234,1937.422z M-249.562,1931.727l-98.204-766.352l0.047,0.137l113.346,764.003
			C-239.413,1930.302-244.523,1931.046-249.562,1931.727z M-462.208,1929.615c-5.019-0.781-10.104-1.625-15.113-2.51l127.803-761.65
			l0.093-0.242L-462.208,1929.615z M-174.149,1917.51l-172.993-749.9l187.954,746.098
			C-164.146,1915.022-169.179,1916.302-174.149,1917.51z M-537.36,1913.885c-4.911-1.297-9.89-2.669-14.797-4.075l202.351-743.601
			l0.186-0.487L-537.36,1913.885z M-100.421,1895.457l-246.014-726.444l260.549,721.085
			C-90.697,1891.931-95.59,1893.733-100.421,1895.457z M-610.663,1890.354c-4.799-1.821-9.655-3.721-14.431-5.649l275.113-718.04
			L-610.663,1890.354z M-29.313,1865.833l-317.339-698.235l331.2,691.421C-20.037,1861.332-24.7,1863.625-29.313,1865.833z
			 M-681.298,1859.256c-4.592-2.313-9.229-4.71-13.781-7.122l344.913-685.452l-0.011,0.025L-681.298,1859.256z M38.377,1829.012
			l-386.112-663.972l-0.026-0.116l399.188,655.91C47.131,1823.586,42.741,1826.338,38.377,1829.012z M-748.312,1821.046
			c-4.327-2.768-8.68-5.62-12.946-8.476l411.798-647.735l-0.045,0.117L-748.312,1821.046z M101.852,1785.521l-447.423-618.167
			l459.694,608.607C110.073,1779.185,105.945,1782.402,101.852,1785.521z M-811.094,1776.162c-4.003-3.181-8.029-6.448-11.965-9.708
			l473.11-601.581l-0.368,0.733L-811.094,1776.162z M160.816,1735.621l-506.209-569.009l-1.214-1.605l518.582,559.943
			C168.308,1728.528,164.553,1732.119,160.816,1735.621z M-869.018,1725.122c-3.644-3.55-7.307-7.196-10.892-10.833l528.971-549.142
			l-1.309,1.11l1.626-1.441l-1.789,1.231l-0.045-0.07l-569.159,502.422c-3.276-3.912-6.568-7.921-9.782-11.914l579.935-491.612
			l-1.249,0.683l1.369-0.786l1.269-1.075l0.38-0.158l-0.93,0.821l0.869-0.497l0.423-0.488l-0.07,0.109l0.038-0.008l-0.148,0.188
			l0.315-0.301l-0.021-0.002l0.021-0.021h-0.003l0.006-0.005l-0.091,0.019l-0.011-0.002l0.002-0.001h-0.007h-0.004l-0.084,0.025
			l0.013-0.017l-0.047,0.006l0.016-0.025l-0.051-0.007l-0.048,0.041l-0.212,0.021l0.149-0.076l-0.051-0.008l0.039-0.032l0.202-0.019
			l-0.02,0.018l0.167-0.061l-0.032,0.049l0.06,0.007l-0.001,0.005l0.05,0l0.002,0l0.022-0.047l-0.016,0.046h0.01l0.066-0.069h-0.004
			h0.002h0.002l0.03-0.038l0.003,0.005l0.001-0.004v-0.006l0.015-0.011l-0.003,0l0.021-0.023l-0.043-0.049l-0.004,0.005l0.004,0.02
			l-0.008-0.012l-0.003,0.006l-0.005-0.002l-0.007,0.008l0.004-0.009l-0.041-0.023l0,0l-0.009,0.058l-0.011-0.001l0.011-0.054
			l-0.052,0.045l-0.021-0.006l0.015-0.02l-0.035,0.016l-0.01-0.002l-0.059,0.019l0.018-0.03l-0.084-0.017l0.1-0.087l-0.037-0.021
			l-0.126,0.092l-0.11-0.027l0.226-0.071l-0.056-0.031l-0.208,0.095l-0.004-0.001l-0.007,0.002l0.006-0.003l-0.036-0.007
			l0.173-0.086l-0.195-0.004l0.074-0.041l-0.13,0.038l-0.351-0.007l-0.399-0.092l0.434-0.092l0.306,0.006l-0.089-0.051l0.174-0.038
			l0.157,0.094l0.14,0.01l0.005-0.003l-0.006-0.005l0.014,0.002l0.056-0.031l0.083,0.027l0.004-0.003l-0.073-0.032l0.018-0.009
			l-0.23-0.084l0.107-0.023l0.134,0.1l0.036-0.02l-0.106-0.094l0.04-0.009l-0.051-0.016l-0.015,0.004l-0.014-0.013l-0.123-0.039
			l-0.015,0.001l0.084,0.062l-0.125,0.024l-0.14-0.071l-0.021,0.001l-0.149-0.064l0.07-0.008l-0.102-0.072l-0.479-0.145l0.009,0.004
			l-0.011-0.004l-0.159-0.017l0.411,0.19l-0.884-0.304l0.168,0.021l-0.172-0.099l0.061,0.014l-0.084-0.026l-0.181-0.104l0.549,0.197
			l-0.076-0.035l0.652,0.167l-0.038-0.027l0.263,0.032l0.065,0.048l-0.103-0.009l0.128,0.028l0.164,0.121l0.098-0.01l-0.08-0.068
			l0.216,0.055l0.014-0.002l0.051,0.084l-0.002,0l0.033,0.052l-0.06,0.01l0.049,0.017l0.024-0.005l0.019,0.02l-0.009-0.003
			l0.05,0.081l0.015-0.008l-0.002-0.005l0.003,0.004l0.005-0.003l-0.006-0.046l0.011,0.044l0.045-0.024l0.019,0.006l-0.002,0.016
			l0.004-0.016l0.018,0.012v-0.003l0.01,0.012l0.01-0.008l0.015,0.007l0.001-0.005l-0.012-0.003l0.014-0.011l-0.026-0.035
			l0.037-0.019l-0.042-0.051l0.019-0.002l0.028,0.051l0.012-0.007l-0.007-0.029l0.021,0.009l-0.015-0.032l0.032-0.006l-0.002-0.014
			l0.007,0.012h0.006l0.007,0.009l0.025-0.018l0.036,0.008l0.021-0.011l-0.007-0.007l0.012-0.003v0.007l0.009-0.005l-0.003-0.002
			l0.01-0.003v0.002l0.002-0.002h-0.001l0.013-0.007l0.001,0.003l0.029-0.021l-0.023,0.004l0.002-0.009l-0.015,0.003l0.003,0.008
			l-0.011,0.018l-0.015-0.014l-0.001,0.001v0.014l-0.02-0.01l-0.005,0l-0.023-0.014l-0.002,0v-0.001l-0.044-0.021l-0.011,0.026
			l-0.002-0.032l-0.071-0.042l0.003-0.015l0.048-0.005l-0.047-0.004l0.004-0.025l0.025,0.003l-0.022-0.025v-0.006l-0.005,0v0
			l-0.044-0.048v0l-0.055-0.054l0.01,0.004l-0.063-0.121l0.083,0.06l0.026,0.089l-0.021-0.086l0.068,0.047l0.001-0.013l0.013,0.01
			l-0.002,0.013l0.008,0.005l0.001-0.011l0.033,0.029l-0.002-0.033l0.033,0.036l-0.001,0.024l0.083,0.083l-0.012-0.004l0.004,0.013
			h0.008l0.011,0.005l0.007-0.007l0.027,0.024l-0.001,0.005l0.003,0.002h-0.004v0.002l0.011,0.018l0.005-0.007l0.019,0.024
			l0.005-0.01l0.013,0.01l-0.008,0.011l0.007,0.007l0.002-0.001l-0.001,0.002l0.002,0.004l-0.025,0.012l0.002,0.01l0.012-0.009
			l-0.004,0.009l0.03-0.008l0.004,0.008l0.005-0.006l0-0.002l0.008-0.007l0.005,0.004l0.02-0.005l0.024,0.016l-0.005-0.016
			l0.024,0.016l0.018-0.016l0.017,0.023l-0.012,0.009l0.001,0l-0.005,0.004l0.013,0.007l-0.021,0.026l0.029,0.027l-0.014,0.035
			l-0.002-0.001l0.002,0.003l-0.001,0.004l-0.007-0.011l-0.037,0.033l-0.013-0.033l-0.017,0.02l-0.037-0.035h-0.002l0.019,0.061
			l-0.002,0.007l-0.042-0.047l-0.007,0.005l0.02,0.051h-0.001l0.004,0.013l0.012-0.005l-0.011,0.007l0.001,0.004l-0.022,0.028
			l0.006,0.007l-0.022,0.021l-0.002-0.001l-0.006,0.007v0l-0.026,0.034l0.114,0.01l0.007-0.001l0.017,0.016l0.013-0.014l0.019,0.05
			l0.013-0.041l0.029,0.01l-0.026-0.021l0.017-0.005l-0.006-0.021l0,0v-0.001l0.014-0.034l0.026,0.012l-0.016-0.024l0.005-0.004
			l-0.005-0.018l0.024-0.028l0.011,0.014l0.01-0.01l-0.004,0.013l0.04,0.047l0.046-0.034l0.01,0.016l0.002-0.001v0.001l0.052,0.071
			l-0.001-0.028l0.031,0.04l-0.01,0.01l0.006,0.007l-0.002,0.005l0.011,0.017l0,0l0.009,0.011l-0.001,0.001l0.001,0.008l0.002-0.006
			l0.003,0.002l0.002-0.008l-0.001,0l0-0.004l0.003,0.001l0.01-0.033l0.011,0.007l0.01-0.013l-0.006-0.007l0.011-0.004l-0.002-0.004
			h0.002l0.003,0.004l0.002-0.001v0.001l0.002,0.009l-0.001-0.002l0.003,0.029l-0.003,0.003l-0.011-0.021l-0.007,0.013l0.011,0.009
			l-0.023,0.016l0.035,0.047l-0.03-0.009l0.03,0.029l-0.005,0.004l0.005,0.006l0,0l0.003,0.007l0,0.002v0.01l-0.015,0.01
			l0.001,0.004l0.014-0.004l0,0.005l0.004-0.006l-0.004,0.008l0.006,0.017h-0.006l0.001,0.012l-0.001-0.001l0.001,0.01l0.002-0.001
			v0.001l0.004-0.003l-0.003-0.002l0.007-0.009l0.005,0.005l0.013-0.01l-0.014,0l0.007-0.015l0.012,0.013l0.004-0.006l-0.004,0.008
			l0.004,0.005l-0.002,0.03l0.002,0.003l0.017-0.01l0.029,0.041l-0.013-0.05h0.001l-0.019-0.037l0.009-0.006l-0.004-0.018
			l0.016,0.009l0.005-0.002l0.027,0.009l-0.015-0.019l0.004-0.004l0.019,0.018l-0.001,0.008l0.013,0.004l0.001-0.002l0.005,0.005
			l0.027-0.015l-0.029-0.009l0.001-0.015l0.02,0.008l-0.012-0.02l0.033-0.011l0.005,0.036l0.021-0.012l-0.003-0.031l0.013-0.003
			l0.022,0.016l0.039-0.021l-0.017-0.009l0.037-0.01l0.006,0.004l0.029-0.014l-0.003,0l0.035-0.021l-0.041-0.024l-0.032,0.015
			l-0.02-0.015l0.022-0.014l0.009,0.001l-0.004-0.002l0.097-0.043l0.046,0.01l-0.086,0.036l0.072,0.001l0.05-0.029l0.079,0.02
			l0.162-0.05l-0.091,0.063h0.028l-0.009,0.007l0.495,0.114l-0.337,0.071l-0.176-0.003l-0.146-0.087l-0.042,0.029l-0.011-0.006
			l-0.01,0.007l0.01,0.005l-0.012,0.009l-0.014-0.007l-0.063,0.035l0.01,0.009h-0.023l-0.014,0.007l-0.032-0.009l0.025,0.011
			l-0.025,0.014l0.033,0.011l-0.059,0.041l0.045,0.041l-0.031,0.006l-0.023-0.041l-0.016,0.01l-0.005-0.038l-0.019,0.012
			l0.003,0.023l-0.014-0.018l-0.035,0.019l0.015,0.022l-0.035-0.011l-0.003,0.002l0.046,0.021l-0.023,0.017l-0.023-0.023
			l0.019,0.027l-0.002,0.002h0.002l-0.007,0.003v0l-0.032,0.006l-0.002-0.011l0.004-0.03l-0.011,0.005l-0.004-0.021l-0.031,0.041
			l0.01,0.022l-0.031,0.007l-0.011-0.013l-0.002,0.015l-0.013-0.005l0.002,0.009l-0.005,0l0.002,0.059l-0.005,0.005l0.003,0.004
			l-0.032,0.014l0.036,0.021l-0.086,0.015v-0.006l-0.009,0.002l0.005,0.005l-0.011,0.007l-0.006-0.012l-0.004,0l-0.014-0.029
			l0.019,0.018l-0.028-0.042l-0.01,0.006l0,0.001h-0.008l0,0l-0.004-0.004l0.002-0.005l0.004,0.006l0.009-0.021v-0.005l0.001-0.003
			l0.004,0.001l0.005-0.011h-0.002l0.021-0.037v-0.03l-0.036,0.06l-0.004-0.011l0.03-0.065l0.01,0.01l0.022-0.082l-0.023,0.032
			l-0.002-0.042l0.002-0.004l0.016,0.005l-0.015-0.014v-0.002l-0.005-0.008l-0.002,0.002l-0.003-0.006l-0.006,0.01l-0.014-0.006
			l-0.006,0.008l0.016,0.006l-0.029,0.047l0.004,0.006l-0.007,0.016l-0.003-0.001l-0.007,0.023l-0.021-0.036l-0.026,0.021
			l-0.011-0.034l0.001-0.003l-0.009-0.013l-0.009,0.006l-0.018-0.007l0.023-0.011l-0.001-0.003l0.037-0.013l0.001,0.003h0.001
			v-0.003l0.02-0.015l0.008,0.002l0.013-0.006l-0.016-0.005l0.007-0.009l-0.051-0.018l0.038-0.032l-0.015-0.015l-0.027,0.03
			l-0.014-0.04l-0.024,0.008l0.016-0.036l-0.027-0.047l0.012,0.005l-0.004-0.014l-0.007,0.009l-0.035-0.025l-0.006,0.012
			l0.039,0.013l-0.025,0.031l-0.014-0.04l-0.019,0.052l0.009,0.011l-0.02,0.02l0.011,0.031l-0.024,0.006l0.004,0.001l-0.007,0.007
			l0.01,0.029h-0.019l-0.004,0.003l-0.034-0.005l0.002-0.004l-0.003,0.004l-0.02-0.01l-0.001,0.002l0.007,0.008l-0.03-0.001
			l-0.023,0.018l-0.006-0.009l-0.006,0.001l-0.004-0.011l-0.046,0l0.002,0.029l-0.005,0.001l0.005,0.005l-0.007-0.005l-0.009,0.004
			l0.016,0.007l0.008,0.092l-0.006,0.008l0.011-0.003v0.002l-0.006,0.021l0.001,0.002l-0.003-0.001l-0.001,0.004l0.005,0.017
			l0.007-0.002l0.003,0.006l-0.004,0.002l0.025,0.043l0.014-0.021l0.006,0.003l0.006-0.005l0.008,0.008l-0.003,0.004l0.013,0.009
			l-0.029,0.03l0.004,0.009l-0.024-0.005l0.002-0.003l-0.026-0.001l0-0.001l-0.007-0.015l0.002,0.013l-0.023-0.039l-0.002,0.007
			l0.019,0.032l-0.019-0.006l0.002,0.01l-0.134,0.025l0.013,0.002l-0.015,0.041h0.036l-0.037,0.021l0.055,0.006l0.017-0.015v-0.013
			l0.029-0.013l-0.029,0.007l-0.001-0.023l0.033,0.008l-0.003,0.009l0.009-0.008l0.016,0.004l-0.03,0.018h0.026l-0.035,0.03
			l0.005,0.001l-0.016,0.024v-0.007l-0.013,0.014l0.01-0.001l-0.015,0.037l0.02-0.01l-0.001-0.026l0.077-0.025l0.01,0.001h0.002
			l0.001,0.013l0,0.003h0l0.003,0.014l0.011-0.007l-0.007,0.02l0.002,0.009l0.027-0.005l-0.009-0.034l0.034-0.002l0.001,0.001
			l0.002-0.001h-0.001l0.058-0.005l-0.021-0.012l0.007-0.019l0.065,0.027l0.013-0.002l-0.01,0.006l0.01,0.012l0.011-0.001
			l-0.003,0.004l0.013,0.001l-0.002-0.006l0.031-0.007l-0.006,0.015l0.038,0.003l-0.028,0.044l-0.021-0.025l-0.004,0.009
			l0.003,0.004l-0.004-0.002l-0.034,0.064l-0.032-0.006l0.009,0.022l-0.013,0.01l0.015,0.023l-0.002,0.001l-0.015-0.024
			l-0.069,0.047l-0.003-0.013l-0.065,0.087l0.004,0.182l-0.075,0.123l-0.005-0.132l0.055-0.145l-0.061,0.079l-0.002-0.076
			l-0.012,0.008l-0.06,0.166l-0.009-0.069l0.021-0.064l-0.027,0.021l-0.008-0.047l0.089-0.121v-0.043l-0.075,0.039l-0.021,0.079
			l-0.002-0.014l-0.01,0.023l0.007,0.051l0.002-0.003l-0.001,0.014l0.003,0.031l-0.004,0.004l-0.007,0.118l0.021-0.056l0.007,0.057
			l-0.029,0.039l-0.006,0.073l-0.145,0.407l0.138-0.22v0.003l0.066-0.105l0.001,0.004l-0.067,0.111l-0.009,0.144l-0.146,0.308
			l0.003-0.072l0.137-0.355l-0.125,0.207l0.001-0.02l-0.101,0.185l0.228-0.637l-0.106,0.142l0.007-0.1l-0.243,0.749l0.013-0.022
			l-0.105,0.386l0.041-0.247l-0.025,0.041l0.07-0.258l-0.014,0.042l0.054-0.321l-0.856,1.135l0.312-0.657l0.589-0.747l0.025-0.144
			l-0.279,0.192l0.068-0.143l-0.02,0.021l-0.067,0.136l-0.186,0.126l-0.368,0.384l-1.443,2.277l1.274-2.101l-0.564,0.588
			l-1.015,1.292l0.825-1.095l-0.953,0.991l-0.013-0.014L-869.018,1725.122z M-350.788,1164.506l-1.65,1.455l2.314-1.662l0.268-0.303
			L-350.788,1164.506z M-348.865,1162.98l0.005,0.007l0.005-0.004l-0.003-0.011l0.004-0.004l0.009,0.004l0.01-0.01l0.01,0.007
			l-0.01-0.008l0.015-0.013l-0.015-0.001l0.024-0.025v0.015l0.023-0.024l-0.007-0.009l0.002-0.002l-0.02-0.024v0.015l-0.07-0.031
			l-0.003,0.004l-0.009-0.01l0.005-0.012l-0.001-0.007l0.004-0.004l0.003,0.002l0.031-0.011l-0.023-0.008l-0.01,0.009l0.002-0.011
			l-0.006-0.003l-0.005,0.019l-0.016-0.026l-0.003,0.006l-0.006-0.009l0.005,0.014l-0.005,0.007l0.008,0.008v-0.005l0.017,0.006
			l-0.008,0.009l0.008-0.001l-0.005,0.016l-0.008-0.004l0.002,0.018l-0.002,0.019l0.002,0.006l-0.002,0.002l-0.003-0.003v0.001
			l-0.026-0.022l-0.004,0.011l0.028,0.022l-0.01,0.013l0.006,0.007l-0.003,0.013l0.006,0.001l0.001-0.009l0.007,0.009l-0.001-0.029
			v-0.002l0.022,0.039l-0.017-0.001l0.032,0.04L-348.865,1162.98z M214.501,1679.97l-560.273-514.697l-1.21-0.865l0.534,0.601
			l1.426,1.307l-1.21-1.066l1.077,1.208l-1.317-1.418l-0.324-0.287l-0.162-0.21l0.157,0.144l-0.686-0.72l0.058,0.042l-0.105-0.12
			l0.151,0.088l-0.097-0.126l0.131,0.149l0.538,0.32l-0.832-0.765l-0.067-0.008l-0.049-0.063l0.061,0.02l-0.01-0.009l0.286,0.088
			l-0.145-0.017l0.262,0.121l1.185,1.045l1.553,0.928l-1.417-0.807l570.548,503.345
			C221.26,1672.137,217.877,1676.099,214.501,1679.97z M-347.165,1164.205l1.211,0.905l-0.684-0.627l-0.574-0.329L-347.165,1164.205
			z M262.449,1619.075l-606.718-453.482l615.676,440.58C268.476,1610.489,265.461,1614.831,262.449,1619.075z M-968.431,1606.463
			c-2.892-4.252-5.78-8.589-8.582-12.891l625.641-429.302l0.73-0.322L-968.431,1606.463z M304.334,1553.269l-648.586-388.255
			c0.002-0.009,0.006-0.017,0.009-0.026l656.205,374.536C309.479,1544.108,306.914,1548.733,304.334,1553.269z M-1008.953,1539.95
			c-2.457-4.525-4.903-9.143-7.276-13.727l664.944-362.385l0.474-0.089l-1.526,0.872l-0.679,0.284l0.036,0.08l0.032-0.015
			L-1008.953,1539.95z M339.57,1483.316l-683.682-318.633l689.926,304.124C343.797,1473.628,341.696,1478.51,339.57,1483.316z
			 M-1042.777,1469.423c-1.995-4.753-3.976-9.61-5.89-14.438l696.478-290.882l0.624-0.187L-1042.777,1469.423z M367.749,1409.879
			l-713.342-245.931l-0.212-0.056l0.138,0.03l-0.778-0.27l0.157,0.07l-0.149-0.019l-0.343-0.165l0.278,0.159l-0.364-0.046
			l-0.214-0.161l0.234,0.025l-0.418-0.161l0.53,0.173l-0.006-0.004l0.017,0.005l0.437,0.141l-0.262-0.124l0.227,0.024l0.68,0.234
			l-0.369-0.047l0.827,0.266l0.731,0.188l-0.518-0.12l717.472,230.771C370.972,1399.863,369.374,1404.916,367.749,1409.879z
			 M-1069.496,1395.593c-1.538-5.018-3.042-10.115-4.477-15.15l720.218-215.87L-1069.496,1395.593z M388.481,1333.87
			l-732.476-169.551c0.004-0.017,0.009-0.031,0.013-0.042l735.69,154.173C390.695,1323.555,389.608,1328.744,388.481,1333.87z
			 M-1088.766,1319.286c-1.033-5.155-2.026-10.386-2.95-15.547l737.518-139.35L-1088.766,1319.286z M401.534,1256.291
			l-746.763-92.437l-0.791-0.253l749.219,77.227C402.699,1245.942,402.138,1251.147,401.534,1256.291z M-1100.348,1241.584
			c-0.512-5.194-0.982-10.472-1.394-15.687l749.891-62.314l-0.168,0.05L-1100.348,1241.584z M406.849,1178.437l-741.737-15.205
			L407,1160.894c0.002,0.704,0.002,1.409,0.002,2.114C407.002,1168.135,406.949,1173.324,406.849,1178.437z M-348.658,1167.905
			l-0.058-1.143l0.018-0.127L-348.658,1167.905z M-348.575,1167.903l0.041-0.82l0.011,0.082L-348.575,1167.903z M-348.499,1166.771
			l-0.017-0.113l0.083-1.758l0.045,0.197L-348.499,1166.771z M-348.736,1166.337l-0.067-1.326l0.074,0.571l0.018,0.6
			L-348.736,1166.337z M-349.258,1166.093l0.094-1.405l0.149-0.297l-0.046,0.974L-349.258,1166.093z M-348.145,1165.796
			l-0.176-0.701l-0.021-0.683l-0.032,0.477l-0.042-0.17l0.071-0.478l-0.008-0.192l0.027,0.053l0.009-0.063l-0.028-0.05l-0.009,0.043
			l-0.033-0.113l0.001-0.021l0.032,0.05l-0.026-0.153l0.006-0.149l0.011,0.027v-0.015l0.053,0.118l-0.004,0.029l0.011,0.034
			l-0.007,0.109l-0.021-0.045l-0.012,0.066l0.028,0.045v0.018v-0.016l0.094,0.186l-0.095-0.162l-0.006,0.073l0.107,0.22
			L-348.145,1165.796z M-346.511,1165.355l-0.413-0.466l-0.326-0.534l-0.255-0.225l0.178,0.308l-0.594-0.676l0.003,0.011
			l-0.07-0.068v0.005l-0.171-0.142l0.013,0.051l-0.101-0.057l0.007-0.051l-0.017-0.012l0.004,0.059l-0.02-0.009l-0.003,0.023
			l-0.007-0.023l-0.003,0.053l-0.079-0.11v-0.025l-0.004-0.002v-0.047l-0.082-0.057l0.01,0.03l-0.028-0.044l0,0l0,0l0.002-0.012
			l0.094,0.054l-0.013-0.032h0.002l-0.003-0.004l0.014,0.002l-0.002-0.05l0.012,0.006l-0.012-0.016h0.005l-0.002-0.006l0.016-0.009
			l-0.003-0.005l0.094,0l0,0.012l0.034-0.003l0.002,0.011l-0.005,0.042l-0.03-0.006l0.024,0.035v0.007l0.021,0.012l0.001-0.009
			l0.109,0.036l-0.006-0.026l0.037,0.033l0.062,0.092l-0.022-0.003l0.045,0.084l-0.002-0.004l0.119,0.088l-0.041-0.084l0.416,0.396
			l-0.102-0.056l0.099,0.106l-0.019-0.015l0.197,0.207l0,0l0,0l0.293,0.317l-0.176-0.155L-346.511,1165.355z M-348.829,1164.506
			l-0.021-0.44l0.07-0.141l0.011,0.362L-348.829,1164.506z M-351.165,1164.131l0.631-0.433l0.331-0.064l-0.312,0.224
			L-351.165,1164.131z M-351.523,1163.825l0.775-0.323l-0.289,0.03l0.064-0.021l0.251-0.021l0.582-0.243l-0.014-0.002l0.104-0.036
			h-0.082l0.049-0.025l0.078,0.007l0.281-0.117l0.043,0.009l-0.082,0.037l0.1-0.033l0.006,0.002l-0.207,0.117l0.037,0.004
			l0.175-0.121l0.161,0.034l-0.123,0.086h-0.209l0.184,0.02l-0.111,0.051h0.039l-0.025,0.017l-0.052-0.005l-0.299,0.096l0.213-0.107
			l-0.046-0.005l0.094-0.066h-0.044l-0.104,0.06l-0.099-0.013l-0.058,0.025h0.135l-0.309,0.174l0.003,0l-0.009,0.006l-0.694,0.224
			l0.166-0.089l-0.443,0.179L-351.523,1163.825z M-347.036,1163.615l-0.283-0.066l-0.243-0.107l0.333,0.035L-347.036,1163.615z
			 M-347.823,1163.585l-0.054-0.059l-0.076-0.009l-0.039-0.082l0.038,0.007l-0.043-0.045l0.041,0.003l-0.069-0.048l0.104,0.056
			h-0.006l0.095,0.124l-0.022-0.003L-347.823,1163.585z M-348.571,1163.275l-0.064-0.043l0.001-0.001l0.013,0.008l-0.011-0.008
			l0.028-0.022l-0.018,0.005l0.007-0.005h-0.023l0.033-0.043l-0.044,0.037l-0.003-0.006l0.023-0.057l-0.043-0.038l-0.015,0.016
			l-0.002-0.004l0.015-0.013l-0.01-0.009l-0.012,0.007l-0.001-0.002l-0.039,0.018l0.036-0.026l-0.017-0.025l0.004-0.001
			l-0.003-0.006l0.002-0.004l0.012,0.008l0.019-0.007l-0.008-0.01l0.013,0.007l-0.001,0.002l0.006,0l0.027,0.014l0.019-0.01
			l-0.01,0.012l0.043-0.026l0.002,0.001l0.002-0.004l0.005,0.011l0,0.001l0.028,0.055l0.013-0.018l0.01,0.019l-0.009,0.006
			l0.023,0.038l0.024-0.018l0.018,0.008l-0.006-0.007l0.017-0.01l-0.002-0.01l0.018-0.014l-0.009,0.021l0.01-0.008l-0.009,0.031
			l-0.004-0.016l-0.009,0.015l0.012,0.005l-0.005,0.006l-0.008-0.009l-0.001,0.004l0.007,0.006l-0.036,0.048v0.002v0.001
			l0.001,0.001l-0.017,0.028l0.001,0.003l-0.013,0.026l-0.009-0.014l-0.009,0.012l-0.049-0.012l0.036,0.023H-348.571z
			 M-353.547,1163.208h-750.677v-0.372c0-4.948,0.046-9.958,0.139-14.895l750.537,14.726l0.001-0.762l-746.944-76.345
			c0.502-5.197,1.065-10.441,1.667-15.591l745.277,91.816v-0.148c0,0.049,0,0.099,0,0.148l2.273,0.279l0.333,0.109l-2.605-0.268
			c-0.001,0.254-0.001,0.508-0.001,0.762l1.526,0.03l0.34-0.037l0.13,0.028l-0.169,0.014l0.263,0.005l0.664,0.138l-0.277,0.054
			l-2.17-0.045l1.558,0.161l-0.121,0.023l-1.669-0.188l-0.069,0.005l0.058-0.005l-0.062-0.002
			C-353.547,1162.97-353.547,1163.089-353.547,1163.208z M-350.558,1163.194l-1.004-0.125l0.128-0.026l1.028,0.105
			L-350.558,1163.194z M-343.673,1163.052l-1.429-0.03l0.958-0.079l0.451,0.056l0.009-0.086l-0.045-0.005l0.059-0.004
			L-343.673,1163.052z M-345.795,1162.985l-0.462-0.095l0.373-0.072l1.17,0.055L-345.795,1162.985z M-350.549,1162.801l-0.352-0.082
			l0.707,0.014L-350.549,1162.801z M-349.825,1162.663l-0.183-0.104l-1.161,0.099l-0.146-0.034l1.199-0.126l-0.243-0.137
			l0.384,0.123l0.063-0.007l0.121,0.066h-0.001l0.007,0.002l0.142,0.085L-349.825,1162.663z M-347.662,1162.663l0.084-0.049
			l-0.037-0.008l0.131-0.058l-0.16,0.051l-0.086-0.018l0.097-0.068l0.179,0.023l0.012-0.007l-0.188-0.019l0.29-0.176l-0.051,0.004
			l0.207-0.149l0.428-0.045l0.119-0.069l-0.086,0.06l0.459-0.15l-0.323,0.062l0.084-0.05l0.495-0.105l-0.009,0.005l0.091-0.022
			l0.622-0.201l-0.336,0.14l1.237-0.261l-0.587,0.19l-0.875,0.165l-0.448,0.189l0.334-0.035l-1.336,0.478l-0.048-0.004l-0.017,0.008
			l0.051,0.005l-0.127,0.088l-0.099-0.021L-347.662,1162.663z M-348.304,1162.572l-0.006-0.023l-0.012,0.015l0.002-0.041
			l-0.041,0.012l-0.014-0.024l0.052-0.022l-0.003-0.005l-0.052,0.024l-0.007-0.01l0.04-0.044l-0.02-0.003l0.005-0.014h0l0.005-0.012
			l0.003,0.001l0.007-0.006l-0.008,0.001l0.009-0.026v-0.005l0.006-0.008l-0.008,0.002l-0.007-0.025l-0.046,0.035l-0.002-0.021
			l-0.042,0.028v-0.003l-0.026,0.014l0.017,0.002l0.003-0.001l0.001,0.002l-0.001,0.003l0.003,0.01l-0.006,0l-0.008,0.003
			l-0.027-0.006l0.001-0.002l-0.004,0.002l-0.005-0.001l0.013-0.011l-0.001-0.002l-0.019,0.008l0.004,0.005l-0.007-0.001h-0.002
			l-0.014-0.004l-0.011,0.002v0.002l-0.01,0.011l0.016-0.003l0,0.005l-0.02,0.008l-0.002-0.003l0,0.002l-0.007-0.003l-0.023,0.001
			l0.02-0.003l-0.015-0.009l0,0l0,0l-0.074-0.021l0.022,0.031l-0.031,0.005l-0.009-0.022l0.013-0.013h-0.001l0.004-0.002
			l0.001,0.002l0.017-0.012h-0.001l0.002-0.001l-0.003-0.002l0.005,0.001l0.029-0.02l-0.016-0.02l0.003-0.004l-0.009-0.007
			l0.039-0.031l0.011,0.026l0.021-0.001l0.001,0.001l0.027-0.005l-0.005-0.009l0.026-0.018l-0.034-0.058l0.031-0.042l0.02,0.076
			l-0.008,0.017l0.01-0.005l0.003,0.019l0.073-0.072l-0.002-0.044l0.009-0.025l-0.01-0.085l-0.005,0.012l-0.002-0.008l0.007-0.008
			l-0.005-0.15l-0.029,0.044l-0.016-0.068l-0.08,0.161l0.01,0.043l-0.047,0.074l-0.011-0.021l-0.009,0.017l-0.018-0.036l0.006-0.013
			l-0.031-0.054l0.072-0.122l0.015,0.059l0.081-0.167l-0.009-0.034l0.059-0.098l-0.016-0.538l0.047-0.175l0.016,0.107l0.025,0.483
			l0.034-0.077l0.004,0.018l0.04-0.084l-0.002-0.021l0.005-0.008l0.049-1.045l0.196-0.718l-0.098,1.454l0.336-0.706l112.043-764.459
			c5.028,0.776,10.119,1.617,15.131,2.498l-127.117,761.843l0.017-0.036l-0.023,0.065l0.064-0.176l-0.021,0.056l0.024-0.068
			l187.113-748.522c4.928,1.298,9.917,2.667,14.827,4.069l-201.843,744.181l260.339-724.79c4.796,1.815,9.646,3.708,14.41,5.628
			l-274.103,717.493c-0.002-0.001-0.003-0.001-0.005-0.003l-0.7,1.893l0.079-0.167l-0.214,0.606l0.009-0.035l-0.071,0.197
			l0.007-0.052l-0.094,0.188l0.118-0.345l-0.297,0.702l0.076-0.127l-0.131,0.419l0.272-0.653l-0.354,0.983l-0.009-0.077l0.057-0.161
			l-0.065,0.104l-0.002-0.011l-0.037,0.074l0.009-0.185l-0.029,0.056l0.019,0.129l-0.056,0.089l0.003,0.077l-0.071,0.186l0.076-0.1
			l0,0.01l0.06-0.172l0.009,0.067l0.007-0.007l-0.004,0.012l0.024,0.159l-0.068,0.083l0.009-0.141l-0.032,0.089l0.004,0.077
			l-0.05,0.064l0.051-0.035l0,0.031l0.091-0.121l0.004,0.022l0.035-0.025l-0.009-0.077l0.014-0.038l-0.016,0.022l-0.021-0.168
			l0.056-0.076l-0.014,0.207l0.139-0.358l-0.146,0.487l0.017-0.012l-0.003,0.011l0.162-0.138l0.034-0.239l-0.124,0.157l0.075-0.3
			l0.088-0.114l0.062-0.285l-0.043,0.255l0.731-0.97l-0.306,0.639l-0.47,0.6l-0.042,0.251l0.177-0.151l-0.034,0.07l0.08-0.054
			l0.542-0.589l-0.091,0.153l0.152-0.13l0.178-0.281l0.854-0.922l0.787-1.001l-0.614,0.814l517.247-559.808
			c3.618,3.521,7.268,7.145,10.848,10.77l-527.721,549.091l0.605-0.512l-0.739,0.65l-1.015,1.058l1.492-1.023l569.193-503.342
			c3.289,3.921,6.586,7.926,9.793,11.905l-579.752,492.33l1.521-0.828l-1.667,0.952l-1.072,0.911l-0.396,0.175l0.787-0.695
			l-0.681,0.426l-0.278,0.346l0.021-0.003l-0.013,0.017l0.488-0.205l-0.164,0.14l0.382-0.08l0.498-0.358l1.035-0.431l-0.925,0.634
			l-0.28,0.085l0.229-0.047l-0.064,0.042l-0.562,0.125l0.032-0.022l-0.366,0.07l0.266-0.028l-0.64,0.193l0.009-0.007l-0.054,0.02
			l0.012-0.017l-0.128,0.052l0.001-0.003l-0.001,0.001l0.022-0.042l-0.067,0.006l0.001-0.012l0.096-0.054l-0.096,0.042l0.008-0.043
			l0.049-0.009l-0.049,0.008l0.008-0.048l0.111-0.011l0.113-0.223l-0.021,0.013l-0.203,0.217v-0.002l-0.003,0.006h0.003
			l-0.027,0.053l0.017-0.003l-0.077,0.074v-0.002l-0.034,0.005l0.001,0.011l-0.031,0.022l0.032-0.014l0.037,0.025l-0.004,0.006
			l-0.029-0.002l0.005,0.022l-0.027,0.007l-0.016-0.003l-0.001,0.009l-0.048,0.013l0.007-0.013l-0.049,0.051l0.001,0.024
			L-348.304,1162.572z M-346.933,1161.291l-0.354,0.369l0.624-0.34l1.317-1.166L-346.933,1161.291z M-347.881,1162.551l-0.077-0.016
			l0.136-0.044l-0.134-0.013l-0.037,0.049h0l0.031-0.05l-0.007-0.001l0.002-0.003l0.006,0.001l0.041-0.042l-0.032,0.044l0.132,0.015
			l0.016-0.006l-0.007,0.007l0.007,0.001h-0.007L-347.881,1162.551z M-345.875,1162.21l0.816-0.244l748.115-78.587
			c0.514,5.165,0.985,10.405,1.398,15.567L-345.875,1162.21z M-349.587,1162.131l-0.4-0.187l-0.762-0.671l0.601,0.343
			L-349.587,1162.131z M-349.971,1162.115l-0.316-0.066l-0.323-0.23L-349.971,1162.115z M-346.419,1161.951l1.657-0.95l0.555-0.232
			l-0.029-0.069l655.61-375.636c2.457,4.515,4.905,9.129,7.281,13.707l-664.391,362.976L-346.419,1161.951z M-350.792,1161.945
			l-0.34-0.072l-0.36-0.158l-658.003-374.993c2.466-4.561,5.011-9.154,7.561-13.652l648.973,387.577
			c-0.014,0.03-0.03,0.067-0.049,0.115l0.912,0.4L-350.792,1161.945z M-348.895,1161.942l-0.023-0.061l0.023-0.136v0.001v-0.002
			l0.011-0.068l-0.016-0.026l-0.008,0.056l-0.046-0.134l0.001-0.008l-0.029-0.127l0.032,0.074l0.004-0.06l-0.039-0.085l-0.068-1.342
			l0.162,0.641l0.007-0.123l0.04,0.311l-0.018,0.378l0.004,0.138l-0.021,0.218l-0.008-0.017l-0.008,0.056l0.011,0.029l0,0.021
			l0.005-0.017l0.033,0.078l-0.038-0.061l-0.003,0.082l0.045,0.144l-0.048-0.138L-348.895,1161.942z M-351.459,1161.804
			l-0.472-0.098l-718.003-230.195c1.523-5.006,3.117-10.06,4.737-15.021L-351.459,1161.804z M-349.476,1161.702l-0.376-0.302
			l-0.345-0.595l0.63,0.708L-349.476,1161.702z M-345.532,1161.683l690.805-306.106c1.998,4.748,3.982,9.601,5.899,14.422
			l-695.966,291.463L-345.532,1161.683z M-350.55,1161.682l-0.721-0.334l-617.732-441.297c2.872-4.236,5.835-8.514,8.81-12.717
			l607.501,452.753c-0.011,0.02-0.021,0.039-0.033,0.059l0.483,0.277L-350.55,1161.682z M-346.422,1161.644l617.195-443.078
			c2.866,4.204,5.742,8.517,8.551,12.816l-624.589,429.75L-346.422,1161.644z M-349.203,1161.576l-0.013-0.017l-0.067-0.275
			l0.027,0.222l-0.036-0.048l-0.086-0.542l0.007,0.01l-0.052-0.185l0.04,0.107l-0.021-0.139l0.043,0.185l-0.014-0.024l0.072,0.277
			L-349.203,1161.576z M-343.938,1161.543c-0.008-0.028-0.015-0.056-0.025-0.082l735.362-155.79
			c1.026,5.104,2.018,10.297,2.946,15.436L-343.938,1161.543z M-350.096,1161.239l-0.219-0.164l0.015,0.021l-0.168-0.136
			l-1.739-1.596l1.705,1.503l-1.512-1.7L-350.096,1161.239z M-350.564,1161.236l-0.714-0.428l-570.956-502.791
			c3.298-3.948,6.678-7.906,10.037-11.768l559.823,513.327c-0.037,0.05-0.071,0.1-0.102,0.146l1.184,0.848L-350.564,1161.236z
			 M-352.579,1161.236l-690.743-303.687c2.011-4.819,4.105-9.697,6.228-14.504L-352.579,1161.236z M-350.034,1161.189l-0.773-1.068
			l0.388,0.434L-350.034,1161.189z M-347.918,1161.148l0.146-0.586l-0.02,0.118l0.003-0.007l-0.094,0.42l0.019-0.141
			L-347.918,1161.148z M-348.441,1161.023l-0.013-0.465l0.048,0.328L-348.441,1161.023z M-347.787,1160.937l0.28-0.728
			l398.02-655.954c4.302,2.75,8.635,5.581,12.882,8.421l-409.627,645.81c-0.003-0.002-0.009-0.004-0.013-0.006l-0.048,0.101
			L-347.787,1160.937z M-342.692,1160.83L372.061,929.38c1.543,5.022,3.055,10.125,4.493,15.163L-342.692,1160.83z
			 M-356.195,1160.816l-732.875-152.887c1.024-5.182,2.115-10.407,3.237-15.532L-356.195,1160.816z M-347.108,1160.603l0.385-0.764
			l460.028-610.78c4,3.173,8.022,6.432,11.957,9.684l-470.95,600.053c-0.02-0.012-0.036-0.023-0.054-0.035l-0.277,0.457
			L-347.108,1160.603z M-348.409,1160.345l-0.066-0.51l-0.014-0.5l0.023-0.142L-348.409,1160.345z M-348.819,1160.338l-0.039-0.169
			l0.108-1.598l0.013,0.079L-348.819,1160.338z M-349.513,1160.241l-0.145-0.431L-349.513,1160.241z M-349.431,1160.166l-0.1-0.296
			l-114.058-763.597c5.023-0.791,10.125-1.54,15.16-2.224L-349.431,1160.166z M-351.026,1160.135l-518.689-558.902
			c3.636-3.556,7.368-7.132,11.092-10.63l506.812,568.39c-0.021,0.017-0.037,0.029-0.048,0.037L-351.026,1160.135z
			 M-348.203,1160.083l36.494-771.869c5.053,0.252,10.168,0.558,15.204,0.913l-51.491,770.125L-348.203,1160.083z
			 M-350.369,1160.036l-461.543-609.872c4.03-3.214,8.145-6.425,12.227-9.545L-350.369,1160.036z M-348.899,1159.988l-0.198-0.855
			l-38.532-770.809c5.033-0.267,10.146-0.482,15.192-0.646L-348.899,1159.988z M-350.026,1159.805l-0.763-1.312L-350.026,1159.805z
			 M-349.835,1159.596L-682.43,466.988c4.557-2.305,9.203-4.596,13.809-6.806l318.73,699.259L-349.835,1159.596z M-347.183,1159.36
			l0.427-1.111l330.218-692.143c4.568,2.298,9.178,4.673,13.697,7.062L-347.183,1159.36z M-349.748,1159.223l-0.227-0.667
			l-188.748-746.407c4.92-1.312,9.925-2.589,14.877-3.799L-349.748,1159.223z M-348.502,1158.958l-0.034-1.191l0.051,1.072
			L-348.502,1158.958z M-350.867,1158.425l-398.41-653.182c4.319-2.774,8.723-5.54,13.092-8.222l385.348,661.39
			C-350.847,1158.416-350.858,1158.42-350.867,1158.425z M-350.263,1158.171l-261.743-722.34c4.778-1.826,9.643-3.625,14.457-5.348
			l247.331,727.673C-350.234,1158.161-350.25,1158.167-350.263,1158.171z"/>
	</g>
	<g>
		<defs>
			<rect id="SVGID_60_" x="179.723" y="587.451" width="490.41" height="862.725"/>
		</defs>
		<clipPath id="SVGID_2_">
			<use xlink:href="#SVGID_60_"  overflow="visible"/>
		</clipPath>
		<path clip-path="url(#SVGID_2_)" d="M347.744,1605.568l-17.168-582.416l0.142,0.616l28.475,581.328
			C355.393,1605.291,351.542,1605.449,347.744,1605.568z M301.987,1605.12c-3.789-0.192-7.633-0.428-11.426-0.698l39.271-580.339
			l0.162-0.648L301.987,1605.12z M405.017,1600.826l-74.03-577.71l0.035,0.103l85.445,575.939
			C412.667,1599.752,408.815,1600.313,405.017,1600.826z M244.714,1599.234c-3.784-0.588-7.617-1.225-11.393-1.892l96.343-574.166
			l0.07-0.182L244.714,1599.234z M461.867,1590.109L331.457,1024.8l141.688,562.442
			C469.408,1588.234,465.613,1589.198,461.867,1590.109z M188.062,1587.376c-3.702-0.978-7.455-2.013-11.155-3.072l152.541-560.56
			l0.14-0.367L188.062,1587.376z M517.446,1573.484L331.99,1025.859l196.414,543.586
			C524.776,1570.826,521.088,1572.185,517.446,1573.484z M132.803,1569.637c-3.618-1.373-7.278-2.805-10.879-4.259l207.393-541.291
			L132.803,1569.637z M571.05,1551.152l-239.225-526.36L581.5,1546.016C578.043,1547.759,574.528,1549.488,571.05,1551.152z
			 M79.555,1546.195c-3.461-1.744-6.958-3.551-10.389-5.369l260.011-516.724l-0.009,0.019L79.555,1546.195z M622.079,1523.395
			L331.01,1022.863l-0.02-0.087l300.925,494.454C628.678,1519.305,625.368,1521.379,622.079,1523.395z M29.037,1517.39
			c-3.262-2.086-6.543-4.236-9.76-6.39l310.432-488.292l-0.034,0.088L29.037,1517.39z M669.928,1490.61l-337.287-466.001
			l346.538,458.795C676.126,1485.833,673.014,1488.259,669.928,1490.61z M-18.291,1483.554c-3.018-2.398-6.052-4.861-9.02-7.318
			l356.651-453.499l-0.277,0.553L-18.291,1483.554z M714.378,1452.993l-381.603-428.944l-0.916-1.21l390.931,422.109
			C720.025,1447.646,717.195,1450.353,714.378,1452.993z M-61.957,1445.079c-2.747-2.677-5.509-5.425-8.211-8.167l398.762-413.967
			l-0.987,0.837l1.226-1.087l-1.349,0.928l-0.034-0.053l-429.057,378.749c-2.47-2.949-4.952-5.971-7.374-8.981l437.181-370.6
			l-0.942,0.515l1.032-0.592l0.957-0.811l0.286-0.119l-0.701,0.619l0.655-0.375l0.318-0.368l-0.053,0.082l0.029-0.006l-0.112,0.143
			l0.237-0.227l-0.015-0.001l0.015-0.017h-0.002l0.005-0.004l-0.068,0.014l-0.008-0.001l0.001-0.001h-0.005h-0.003l-0.063,0.019
			l0.01-0.013l-0.036,0.004l0.012-0.019l-0.038-0.005l-0.037,0.031l-0.16,0.017l0.112-0.057l-0.039-0.006l0.029-0.024l0.152-0.014
			l-0.015,0.014l0.125-0.045l-0.024,0.037l0.045,0.005l-0.001,0.003l0.038,0l0.001,0l0.016-0.036l-0.012,0.035h0.007l0.05-0.052
			h-0.003H330h0.002l0.023-0.028l0.002,0.004l0.001-0.004v-0.004l0.011-0.009h-0.002l0.015-0.018l-0.032-0.037l-0.003,0.004
			l0.003,0.015l-0.006-0.009l-0.002,0.004l-0.004-0.001l-0.006,0.006l0.003-0.007l-0.031-0.018l0,0l-0.007,0.044l-0.008-0.001
			l0.008-0.041l-0.04,0.034l-0.015-0.005l0.011-0.015l-0.026,0.012l-0.007-0.001l-0.045,0.015l0.014-0.022l-0.063-0.013l0.075-0.066
			l-0.028-0.016l-0.095,0.07l-0.083-0.02l0.17-0.054l-0.042-0.023l-0.156,0.071l-0.003,0l-0.005,0.001l0.005-0.002l-0.027-0.006
			l0.13-0.065l-0.147-0.003l0.056-0.03l-0.099,0.028l-0.264-0.006l-0.301-0.069l0.327-0.07l0.23,0.005l-0.067-0.039l0.132-0.028
			l0.118,0.071l0.105,0.008l0.004-0.002l-0.004-0.004l0.011,0.001l0.042-0.023l0.062,0.021l0.003-0.003l-0.055-0.024l0.013-0.007
			l-0.173-0.063l0.081-0.017l0.102,0.075l0.027-0.015l-0.081-0.071l0.03-0.007l-0.039-0.012l-0.011,0.003l-0.011-0.01l-0.092-0.029
			l-0.011,0.001l0.063,0.047l-0.095,0.018l-0.105-0.054l-0.016,0.001l-0.112-0.048l0.053-0.006l-0.077-0.055l-0.361-0.109
			l0.007,0.003l-0.008-0.003l-0.12-0.013l0.31,0.143l-0.667-0.229l0.126,0.016l-0.13-0.075l0.046,0.011l-0.063-0.02l-0.136-0.079
			l0.414,0.148l-0.057-0.026l0.491,0.125l-0.029-0.021l0.198,0.024l0.049,0.036l-0.078-0.007l0.096,0.021l0.124,0.092l0.074-0.008
			l-0.06-0.052l0.163,0.041l0.011-0.001l0.038,0.063l-0.001,0l0.025,0.039l-0.045,0.008l0.037,0.013l0.019-0.003l0.014,0.015
			l-0.007-0.002l0.038,0.061l0.011-0.006l-0.001-0.003l0.002,0.003l0.004-0.002l-0.005-0.035l0.009,0.033l0.034-0.019l0.014,0.005
			l-0.001,0.012l0.003-0.012l0.013,0.009v-0.002l0.008,0.009l0.007-0.006l0.012,0.006l0.001-0.004l-0.009-0.002l0.01-0.008
			l-0.02-0.026l0.028-0.014l-0.032-0.039l0.014-0.002l0.021,0.039l0.009-0.006l-0.005-0.021l0.016,0.007l-0.011-0.024l0.024-0.005
			l-0.002-0.011l0.005,0.01h0.004l0.006,0.007l0.019-0.014l0.027,0.007l0.016-0.008l-0.005-0.005l0.009-0.002v0.005l0.007-0.004
			l-0.002-0.001l0.008-0.002v0.002l0.001-0.002h0l0.01-0.005l0,0.002l0.022-0.016l-0.018,0.003l0.001-0.007l-0.011,0.002
			l0.002,0.006l-0.008,0.014l-0.011-0.01l-0.001,0.001v0.01l-0.015-0.007h-0.004l-0.018-0.011l-0.002,0v0l-0.034-0.017l-0.008,0.02
			l-0.001-0.024l-0.054-0.031l0.002-0.012l0.037-0.003l-0.036-0.003l0.003-0.019l0.019,0.003l-0.017-0.019v-0.005h-0.003l0,0
			l-0.034-0.036v0.001l-0.041-0.041l0.008,0.003l-0.048-0.091l0.062,0.045l0.02,0.067l-0.016-0.065l0.051,0.036l0-0.01l0.01,0.008
			l-0.001,0.01l0.006,0.003l0.001-0.008l0.025,0.022l-0.002-0.025l0.025,0.027l-0.001,0.018l0.063,0.063l-0.009-0.004l0.003,0.01
			h0.006l0.008,0.004l0.005-0.006l0.021,0.019l0,0.004l0.002,0.002h-0.003v0.002l0.009,0.013l0.003-0.005l0.015,0.018l0.003-0.008
			l0.01,0.008l-0.006,0.009l0.005,0.005l0.002,0l-0.001,0.001l0.002,0.003l-0.019,0.009l0.001,0.008l0.009-0.006l-0.003,0.006
			l0.023-0.006l0.003,0.006l0.003-0.005v-0.001l0.006-0.005l0.004,0.003l0.015-0.004l0.019,0.012l-0.004-0.013l0.019,0.013
			l0.013-0.013l0.013,0.018l-0.009,0.007l0,0l-0.004,0.003l0.01,0.005l-0.016,0.02l0.021,0.02l-0.01,0.026l-0.002-0.001l0.002,0.002
			l-0.001,0.003l-0.005-0.009l-0.028,0.025l-0.01-0.025l-0.012,0.016l-0.028-0.027h-0.001l0.015,0.045l-0.002,0.006l-0.032-0.036
			l-0.006,0.004l0.015,0.039h0l0.003,0.009l0.009-0.003l-0.008,0.005l0.001,0.003l-0.017,0.021l0.004,0.005l-0.017,0.016l-0.002,0
			l-0.004,0.005l0,0l-0.02,0.026l0.085,0.007l0.005-0.001l0.012,0.012l0.01-0.011l0.014,0.038l0.01-0.031l0.022,0.008l-0.02-0.016
			l0.013-0.004l-0.004-0.015l0,0v0l0.01-0.026l0.02,0.009l-0.012-0.018l0.004-0.003l-0.004-0.013l0.018-0.021l0.008,0.011
			l0.008-0.008l-0.003,0.01l0.03,0.036l0.035-0.026l0.007,0.012l0.001,0v0l0.039,0.053l-0.001-0.021l0.024,0.03l-0.008,0.007
			l0.005,0.006l-0.002,0.004l0.008,0.013l0,0l0.007,0.008l-0.001,0.001l0.001,0.006l0.001-0.004l0.002,0.001l0.002-0.006
			l-0.001,0.001l0-0.003l0.002,0l0.007-0.025l0.008,0.005l0.008-0.01l-0.004-0.005l0.008-0.004l-0.001-0.003h0.001l0.002,0.003
			l0.002-0.001v0.001l0.001,0.007l-0.001-0.001l0.002,0.022l-0.002,0.002l-0.008-0.016l-0.005,0.01l0.008,0.006l-0.017,0.012
			l0.026,0.036l-0.023-0.007l0.023,0.022l-0.003,0.003l0.003,0.004l0,0l0.002,0.005v0.001v0.007l-0.012,0.007l0.001,0.003
			l0.011-0.003v0.004l0.003-0.005l-0.003,0.006l0.005,0.013h-0.005l0.001,0.009l-0.001-0.001l0.001,0.008l0.001-0.001v0.001
			l0.003-0.003l-0.003-0.001l0.005-0.006l0.004,0.003l0.01-0.007l-0.01,0l0.005-0.011l0.009,0.01l0.003-0.004l-0.003,0.006
			l0.003,0.004l-0.001,0.022l0.001,0.002l0.013-0.008l0.022,0.031l-0.01-0.037h0.001l-0.015-0.028l0.007-0.005l-0.003-0.014
			l0.012,0.007l0.003-0.001l0.021,0.007l-0.011-0.015l0.003-0.003l0.014,0.014l0,0.006l0.01,0.003l0.001-0.001l0.003,0.003
			l0.021-0.011l-0.021-0.007l0-0.011l0.015,0.006l-0.009-0.015l0.024-0.009l0.004,0.027l0.016-0.009l-0.002-0.023l0.009-0.002
			l0.017,0.012l0.029-0.016l-0.013-0.007l0.027-0.008l0.004,0.003l0.022-0.01l-0.002,0l0.026-0.016l-0.031-0.019l-0.024,0.011
			l-0.015-0.011l0.017-0.011l0.006,0.001l-0.003-0.002l0.073-0.032l0.035,0.008l-0.065,0.027l0.054,0l0.038-0.021l0.06,0.015
			l0.123-0.037l-0.069,0.047h0.021l-0.007,0.005l0.374,0.086l-0.254,0.053l-0.133-0.002l-0.11-0.066l-0.032,0.022l-0.008-0.004
			l-0.007,0.005l0.007,0.004l-0.009,0.007l-0.01-0.006l-0.048,0.027l0.007,0.006h-0.018l-0.01,0.005l-0.024-0.006l0.019,0.008
			l-0.019,0.01l0.025,0.009l-0.044,0.03l0.034,0.031l-0.023,0.004l-0.018-0.031l-0.012,0.008l-0.004-0.029l-0.014,0.009l0.002,0.018
			l-0.011-0.014l-0.026,0.014l0.011,0.017l-0.026-0.008l-0.002,0.001l0.035,0.016l-0.018,0.012l-0.018-0.018l0.014,0.021
			l-0.001,0.001h0.001l-0.005,0.002l0,0l-0.024,0.004l-0.001-0.008l0.003-0.022l-0.008,0.004l-0.003-0.016l-0.023,0.03l0.007,0.017
			l-0.023,0.006l-0.008-0.01l-0.002,0.012l-0.01-0.004l0.002,0.006l-0.004,0l0.001,0.044l-0.003,0.004l0.002,0.003l-0.024,0.011
			l0.027,0.016l-0.065,0.011v-0.004l-0.006,0.001l0.004,0.004l-0.009,0.005l-0.004-0.009l-0.003,0l-0.011-0.022l0.014,0.014
			l-0.021-0.032l-0.007,0.005v0.001h-0.006l0,0l-0.003-0.003l0.001-0.004l0.003,0.004l0.007-0.016v-0.004l0-0.002l0.003,0
			l0.004-0.008h-0.002l0.016-0.028v-0.022l-0.027,0.045l-0.003-0.008l0.022-0.049l0.008,0.007l0.017-0.062l-0.018,0.024
			l-0.001-0.031l0.001-0.003l0.012,0.004l-0.011-0.011v-0.002l-0.004-0.006l-0.001,0.001l-0.002-0.005l-0.004,0.008l-0.011-0.004
			l-0.004,0.006l0.012,0.005l-0.022,0.035l0.003,0.004l-0.005,0.012l-0.002-0.001l-0.005,0.017l-0.016-0.027l-0.019,0.016
			l-0.008-0.025l0.001-0.002l-0.006-0.01l-0.007,0.004l-0.013-0.006l0.018-0.008l-0.001-0.002l0.028-0.01l0.001,0.002h0.001v-0.003
			l0.015-0.011l0.006,0.002l0.01-0.004l-0.012-0.004l0.005-0.007l-0.039-0.014l0.029-0.024l-0.011-0.011l-0.021,0.022l-0.01-0.03
			l-0.019,0.007l0.012-0.027l-0.021-0.036l0.009,0.004l-0.003-0.011l-0.005,0.006l-0.026-0.019l-0.004,0.009l0.029,0.009
			l-0.019,0.023l-0.01-0.03l-0.014,0.039l0.007,0.009l-0.015,0.015l0.008,0.023l-0.019,0.004l0.003,0l-0.005,0.006l0.007,0.021
			h-0.014l-0.003,0.003l-0.026-0.004l0.002-0.003l-0.002,0.003l-0.015-0.007l-0.001,0.001l0.005,0.006l-0.022,0l-0.018,0.014
			l-0.004-0.007l-0.004,0l-0.003-0.008h-0.035l0.001,0.021l-0.004,0.001l0.004,0.004l-0.005-0.004l-0.007,0.003l0.012,0.005
			l0.006,0.07l-0.004,0.006l0.008-0.003v0.002l-0.004,0.016l0,0.001l-0.002,0l-0.001,0.003l0.003,0.013l0.005-0.002l0.003,0.005
			l-0.003,0.001l0.019,0.033l0.01-0.016l0.005,0.003l0.005-0.004l0.006,0.006l-0.002,0.003l0.01,0.007l-0.022,0.022l0.003,0.007
			l-0.018-0.004l0.002-0.002l-0.02-0.001v0l-0.005-0.011l0.002,0.01l-0.018-0.029l-0.002,0.005l0.014,0.024l-0.014-0.004
			l0.002,0.007l-0.101,0.019l0.009,0.002l-0.011,0.03h0.027l-0.028,0.017l0.042,0.004l0.012-0.011v-0.01l0.022-0.01l-0.022,0.005
			l0-0.018l0.024,0.006l-0.002,0.006l0.007-0.006l0.012,0.003l-0.023,0.013h0.02l-0.026,0.023l0.004,0.001l-0.012,0.019v-0.006
			l-0.01,0.01l0.007,0l-0.011,0.027l0.015-0.008l-0.001-0.02l0.058-0.019l0.007,0.001h0.001l0.001,0.01v0.002l0,0l0.002,0.011
			l0.008-0.005l-0.005,0.015l0.001,0.007l0.021-0.004l-0.007-0.025l0.026-0.002l0,0.001l0.002-0.001h-0.001l0.044-0.004
			l-0.016-0.009l0.005-0.015l0.049,0.021l0.01-0.001l-0.007,0.004l0.007,0.01l0.008-0.001l-0.003,0.003l0.01,0.001l-0.001-0.005
			l0.023-0.005l-0.005,0.011l0.029,0.002l-0.021,0.034l-0.016-0.019l-0.003,0.007l0.002,0.003l-0.003-0.002l-0.025,0.049
			l-0.024-0.004l0.007,0.017l-0.009,0.007l0.011,0.018l-0.002,0.001l-0.011-0.019l-0.052,0.036l-0.002-0.01l-0.049,0.066
			l0.003,0.137l-0.056,0.092l-0.003-0.1l0.041-0.109l-0.045,0.059l-0.002-0.057l-0.009,0.006l-0.045,0.125l-0.006-0.052l0.016-0.049
			l-0.021,0.016l-0.006-0.036l0.067-0.091v-0.032l-0.057,0.029l-0.016,0.06l-0.001-0.01l-0.007,0.018l0.005,0.039l0.002-0.002
			l-0.001,0.01l0.002,0.023l-0.003,0.003l-0.005,0.089l0.016-0.042l0.006,0.043l-0.022,0.029l-0.004,0.055l-0.109,0.307l0.104-0.166
			v0.002l0.05-0.079l0.001,0.003l-0.051,0.083l-0.007,0.108l-0.109,0.231l0.002-0.054l0.103-0.268l-0.094,0.156l0.001-0.015
			l-0.076,0.139l0.172-0.48l-0.08,0.106l0.005-0.075l-0.184,0.564l0.01-0.017l-0.079,0.292l0.03-0.186l-0.019,0.03l0.053-0.194
			l-0.011,0.031l0.041-0.242l-0.646,0.855l0.235-0.495l0.444-0.563l0.019-0.108l-0.21,0.145l0.051-0.108l-0.015,0.016l-0.05,0.103
			l-0.14,0.095l-0.277,0.29l-1.088,1.716l0.96-1.583l-0.425,0.443l-0.765,0.974l0.622-0.825l-0.718,0.747l-0.01-0.011
			L-61.957,1445.079z M328.708,1022.461l-1.244,1.097l1.745-1.253l0.202-0.229L328.708,1022.461z M330.158,1021.311l0.003,0.005
			l0.004-0.003l-0.002-0.008l0.003-0.003l0.007,0.003l0.008-0.007l0.007,0.005l-0.007-0.006l0.011-0.01l-0.011-0.001l0.018-0.019
			v0.012l0.017-0.019l-0.005-0.006l0.002-0.001l-0.015-0.018v0.011l-0.053-0.023l-0.002,0.004l-0.007-0.008l0.003-0.009l0-0.006
			l0.003-0.003l0.002,0.002l0.023-0.008l-0.017-0.007l-0.007,0.007l0.001-0.008l-0.005-0.003l-0.003,0.014l-0.012-0.02l-0.002,0.005
			l-0.005-0.006l0.004,0.01l-0.004,0.005l0.006,0.006v-0.003l0.013,0.004l-0.006,0.007l0.006-0.001l-0.004,0.012l-0.006-0.004
			l0.002,0.014l-0.002,0.014l0.002,0.004l-0.002,0.001l-0.002-0.002v0.001l-0.02-0.017l-0.003,0.008l0.021,0.017l-0.008,0.009
			l0.004,0.006l-0.002,0.01l0.004,0.001l0.001-0.007l0.006,0.007l-0.001-0.021v-0.001l0.017,0.029l-0.013-0.001l0.024,0.03
			L330.158,1021.311z M754.848,1411.041l-422.359-388.001l-0.913-0.652l0.402,0.453l1.075,0.985l-0.912-0.804l0.812,0.911
			l-0.993-1.069l-0.245-0.216l-0.122-0.159l0.118,0.108l-0.517-0.542l0.044,0.032l-0.079-0.09l0.114,0.066l-0.073-0.095l0.099,0.112
			l0.406,0.242l-0.627-0.577l-0.05-0.006l-0.037-0.047l0.045,0.015l-0.008-0.007l0.215,0.067l-0.109-0.013l0.197,0.091l0.893,0.788
			l1.171,0.7l-1.068-0.608l430.104,379.444C759.944,1405.136,757.393,1408.123,754.848,1411.041z M331.439,1022.234l0.914,0.682
			l-0.516-0.473l-0.433-0.248L331.439,1022.234z M790.994,1365.135l-457.371-341.854l464.124,332.129
			C795.537,1358.663,793.264,1361.936,790.994,1365.135z M-136.898,1355.628c-2.18-3.206-4.357-6.475-6.469-9.718l471.636-323.627
			l0.55-0.243L-136.898,1355.628z M822.569,1315.528l-488.933-292.684c0.002-0.007,0.005-0.013,0.007-0.02l494.677,282.342
			C826.447,1308.622,824.513,1312.108,822.569,1315.528z M-167.446,1305.488c-1.852-3.411-3.696-6.893-5.485-10.348l501.265-273.183
			l0.357-0.067l-1.15,0.657l-0.512,0.214l0.027,0.06l0.024-0.011L-167.446,1305.488z M849.131,1262.794l-515.39-240.2
			l520.097,229.262C852.317,1255.491,850.734,1259.171,849.131,1262.794z M-192.944,1252.321c-1.504-3.583-2.997-7.245-4.44-10.884
			l525.036-219.28l0.47-0.141L-192.944,1252.321z M870.374,1207.434l-537.75-185.394l-0.16-0.042l0.104,0.023l-0.586-0.204
			l0.118,0.053l-0.113-0.014l-0.259-0.125l0.21,0.12l-0.274-0.035l-0.161-0.122l0.176,0.019l-0.315-0.121l0.399,0.13l-0.004-0.003
			l0.013,0.004l0.329,0.106l-0.198-0.094l0.171,0.019l0.512,0.177l-0.278-0.035l0.623,0.2l0.551,0.142l-0.391-0.09l540.862,173.965
			C872.803,1199.884,871.599,1203.693,870.374,1207.434z M-213.085,1196.665c-1.159-3.782-2.294-7.625-3.375-11.421l542.933-162.732
			L-213.085,1196.665z M886.002,1150.135L333.83,1022.32c0.003-0.013,0.007-0.023,0.01-0.032l554.596,116.223
			C887.671,1142.359,886.852,1146.271,886.002,1150.135z M-227.612,1139.141c-0.778-3.886-1.527-7.83-2.224-11.72l555.974-105.048
			L-227.612,1139.141z M895.842,1091.652l-562.943-69.683l-0.597-0.19l564.795,58.217
			C896.72,1083.851,896.297,1087.775,895.842,1091.652z M-236.343,1080.566c-0.386-3.915-0.741-7.894-1.051-11.825l565.301-46.975
			l-0.127,0.038L-236.343,1080.566z M899.849,1032.963L340.694,1021.5l559.268-1.763c0.001,0.531,0.001,1.062,0.001,1.594
			C899.964,1025.197,899.924,1029.109,899.849,1032.963z M330.313,1025.023l-0.043-0.861l0.013-0.096L330.313,1025.023z
			 M330.376,1025.022l0.03-0.618l0.008,0.062L330.376,1025.022z M330.434,1024.168l-0.012-0.086l0.062-1.325l0.034,0.149
			L330.434,1024.168z M330.255,1023.841l-0.051-1l0.056,0.431l0.014,0.452L330.255,1023.841z M329.862,1023.657l0.071-1.059
			l0.112-0.224l-0.035,0.734L329.862,1023.657z M330.701,1023.434l-0.133-0.529l-0.016-0.515l-0.024,0.359l-0.032-0.128l0.054-0.36
			l-0.006-0.146l0.021,0.04l0.006-0.047l-0.021-0.038l-0.007,0.033l-0.025-0.085l0-0.016l0.024,0.038l-0.02-0.115l0.005-0.113
			l0.008,0.021v-0.011l0.04,0.089l-0.003,0.022l0.009,0.025l-0.005,0.082l-0.016-0.034l-0.009,0.05l0.021,0.034v0.014v-0.012
			l0.071,0.14l-0.071-0.122l-0.005,0.055l0.081,0.166L330.701,1023.434z M331.932,1023.101l-0.311-0.352l-0.246-0.402l-0.192-0.169
			l0.134,0.232l-0.448-0.509l0.002,0.008l-0.053-0.051v0.004l-0.129-0.107l0.01,0.039l-0.076-0.043l0.006-0.039l-0.013-0.009
			l0.003,0.044l-0.015-0.006l-0.002,0.017l-0.006-0.017l-0.002,0.04l-0.059-0.083v-0.019l-0.003-0.002v-0.035l-0.062-0.043
			l0.008,0.022l-0.021-0.033l0,0l0,0l0.001-0.009l0.071,0.041l-0.009-0.024h0.002l-0.003-0.003l0.01,0.001l-0.001-0.038l0.009,0.004
			l-0.009-0.012h0.004l-0.001-0.005l0.012-0.006l-0.002-0.004l0.071,0l0,0.009l0.025-0.002l0.001,0.008l-0.004,0.032l-0.022-0.005
			l0.018,0.026v0.005l0.016,0.009l0.001-0.007l0.082,0.027l-0.004-0.02l0.028,0.025l0.047,0.069l-0.017-0.002l0.034,0.063
			l-0.001-0.003l0.09,0.066l-0.031-0.063l0.313,0.299l-0.077-0.042l0.075,0.08l-0.014-0.011l0.148,0.156l0,0l0,0l0.221,0.238
			l-0.133-0.116L331.932,1023.101z M330.185,1022.461l-0.016-0.332l0.053-0.106l0.008,0.273L330.185,1022.461z M328.424,1022.178
			l0.476-0.326l0.25-0.049l-0.235,0.169L328.424,1022.178z M328.154,1021.948l0.584-0.244l-0.218,0.023l0.049-0.016l0.189-0.017
			l0.439-0.183l-0.01-0.002l0.079-0.027h-0.062l0.038-0.019l0.058,0.005l0.212-0.089l0.033,0.007l-0.062,0.028l0.075-0.025
			l0.005,0.001l-0.156,0.088l0.028,0.003l0.132-0.091l0.121,0.025l-0.092,0.065h-0.158l0.139,0.015l-0.084,0.039h0.029l-0.019,0.013
			l-0.039-0.004l-0.226,0.072l0.161-0.081l-0.035-0.004l0.071-0.05h-0.033l-0.078,0.045l-0.075-0.01l-0.043,0.019h0.102
			l-0.232,0.131l0.002,0l-0.007,0.004l-0.523,0.169l0.125-0.067l-0.334,0.135L328.154,1021.948z M331.537,1021.79l-0.213-0.05
			l-0.183-0.081l0.251,0.026L331.537,1021.79z M330.943,1021.767l-0.041-0.045l-0.057-0.006l-0.03-0.062l0.029,0.005l-0.033-0.034
			l0.031,0.002l-0.052-0.036l0.079,0.042h-0.004l0.071,0.093l-0.017-0.002L330.943,1021.767z M330.379,1021.533l-0.048-0.032
			l0-0.001l0.01,0.006l-0.008-0.006l0.021-0.017l-0.014,0.004l0.005-0.004h-0.017l0.025-0.032l-0.033,0.027l-0.002-0.004
			l0.018-0.042l-0.033-0.029l-0.011,0.012l-0.002-0.003l0.012-0.01l-0.007-0.006l-0.009,0.005l-0.001-0.002l-0.029,0.014l0.027-0.02
			l-0.013-0.019l0.003-0.001l-0.002-0.004l0.001-0.004l0.009,0.007l0.014-0.006l-0.006-0.007l0.01,0.005l0,0.001l0.004,0
			l0.021,0.011l0.014-0.007l-0.007,0.009l0.033-0.02l0.001,0.001l0.001-0.003l0.003,0.008v0l0.021,0.042l0.01-0.014l0.008,0.014
			l-0.007,0.005l0.018,0.029l0.018-0.013l0.014,0.006l-0.004-0.005l0.013-0.008l-0.002-0.008l0.014-0.01l-0.007,0.016l0.008-0.006
			l-0.006,0.023l-0.003-0.012l-0.007,0.011l0.009,0.004l-0.004,0.004l-0.006-0.007l-0.001,0.003l0.005,0.004l-0.027,0.036v0.001v0
			l0.001,0.001l-0.013,0.021l0.001,0.002l-0.01,0.02l-0.007-0.011l-0.007,0.009l-0.037-0.009l0.027,0.017H330.379z
			 M326.628,1021.483h-565.894v-0.28c0-3.73,0.035-7.507,0.105-11.228l565.788,11.101l0.001-0.575l-563.08-57.552
			c0.379-3.917,0.803-7.871,1.257-11.753l561.823,69.215v-0.112c0,0.037,0,0.074,0,0.112l1.713,0.21l0.25,0.082l-1.964-0.202
			c-0.001,0.192-0.001,0.383-0.001,0.575l1.151,0.022l0.256-0.028l0.098,0.021l-0.127,0.011l0.198,0.004l0.5,0.104l-0.209,0.041
			l-1.636-0.034l1.175,0.121l-0.091,0.018l-1.259-0.142l-0.052,0.004l0.043-0.004l-0.047-0.002
			C326.628,1021.303,326.628,1021.393,326.628,1021.483z M328.882,1021.472l-0.757-0.094l0.097-0.02l0.775,0.08L328.882,1021.472z
			 M334.072,1021.365l-1.077-0.022l0.722-0.06l0.34,0.042l0.007-0.064l-0.034-0.004l0.044-0.003L334.072,1021.365z
			 M332.472,1021.314l-0.349-0.071l0.281-0.054l0.882,0.042L332.472,1021.314z M328.889,1021.176l-0.266-0.062l0.533,0.01
			L328.889,1021.176z M329.434,1021.072l-0.138-0.078l-0.875,0.074l-0.109-0.026l0.904-0.095l-0.183-0.104l0.29,0.093l0.047-0.006
			l0.091,0.05h-0.001l0.005,0.002l0.107,0.064L329.434,1021.072z M331.065,1021.071l0.063-0.037l-0.028-0.006l0.099-0.043
			l-0.121,0.039l-0.065-0.014l0.073-0.052l0.135,0.018l0.009-0.005l-0.142-0.015l0.219-0.133l-0.039,0.004l0.156-0.113l0.322-0.033
			l0.09-0.052l-0.065,0.045l0.346-0.113l-0.243,0.047l0.063-0.038l0.374-0.079l-0.007,0.004l0.069-0.017l0.469-0.151l-0.253,0.105
			l0.932-0.197l-0.442,0.144l-0.66,0.124l-0.338,0.143l0.252-0.026l-1.007,0.36l-0.036-0.003l-0.013,0.006l0.038,0.004l-0.096,0.066
			l-0.075-0.016L331.065,1021.071z M330.581,1021.003l-0.004-0.018l-0.009,0.011l0.001-0.031l-0.031,0.009l-0.011-0.018l0.039-0.017
			l-0.002-0.004l-0.04,0.019l-0.005-0.008l0.03-0.033l-0.015-0.002l0.003-0.01l0,0l0.003-0.009l0.002,0l0.005-0.005l-0.006,0.001
			l0.007-0.02v-0.004l0.004-0.006l-0.006,0.001l-0.005-0.019l-0.035,0.026l-0.001-0.016l-0.031,0.021v-0.002l-0.02,0.011
			l0.013,0.001l0.002,0l0.001,0.001l-0.001,0.002l0.002,0.007h-0.004l-0.006,0.002l-0.021-0.005l0.001-0.001l-0.003,0.001l-0.004,0
			l0.01-0.008l-0.001-0.002l-0.014,0.006l0.003,0.004l-0.005,0h-0.001l-0.011-0.003l-0.008,0.001v0.002l-0.008,0.008l0.012-0.002
			l0,0.004l-0.015,0.006l-0.001-0.002l0,0.002l-0.005-0.002l-0.018,0l0.015-0.002l-0.011-0.007l0,0l0,0l-0.056-0.016l0.017,0.023
			l-0.024,0.003l-0.006-0.017l0.01-0.01h-0.001l0.003-0.002l0.001,0.001l0.013-0.009h-0.001l0.002,0l-0.002-0.002l0.003,0.001
			l0.022-0.015l-0.012-0.015l0.002-0.003l-0.007-0.005l0.029-0.024l0.008,0.021l0.016-0.001l0.001,0.001l0.021-0.004l-0.004-0.007
			l0.02-0.014l-0.025-0.044l0.023-0.032l0.015,0.057l-0.006,0.013l0.008-0.004l0.002,0.014l0.055-0.054l-0.001-0.034l0.007-0.019
			l-0.008-0.064l-0.004,0.009l-0.001-0.006l0.006-0.006l-0.004-0.113l-0.021,0.033l-0.012-0.051l-0.061,0.121l0.008,0.033
			l-0.036,0.056l-0.008-0.015l-0.007,0.012l-0.013-0.026l0.005-0.01l-0.023-0.041l0.054-0.091l0.011,0.044l0.061-0.126l-0.007-0.025
			l0.045-0.074l-0.012-0.406l0.036-0.132l0.012,0.081l0.019,0.364l0.026-0.058l0.003,0.014l0.03-0.063l-0.002-0.016l0.004-0.006
			l0.037-0.788l0.147-0.541l-0.074,1.096l0.253-0.532l84.463-576.283c3.791,0.585,7.628,1.219,11.407,1.882l-95.826,574.312
			l0.013-0.027l-0.017,0.049l0.048-0.132l-0.015,0.042l0.018-0.052l141.054-564.269c3.715,0.979,7.476,2.01,11.177,3.067
			l-152.158,560.997l196.255-546.379c3.616,1.369,7.272,2.795,10.863,4.243l-206.631,540.878c-0.001-0.001-0.002-0.001-0.004-0.002
			l-0.528,1.426l0.059-0.126l-0.161,0.457l0.007-0.026l-0.054,0.148l0.005-0.04l-0.071,0.142l0.089-0.26l-0.224,0.529l0.057-0.096
			l-0.099,0.316l0.205-0.492l-0.267,0.741l-0.006-0.058l0.042-0.122l-0.049,0.079l-0.001-0.008l-0.028,0.056l0.007-0.14
			l-0.022,0.042l0.014,0.097l-0.042,0.067l0.003,0.058l-0.054,0.14l0.057-0.076l0,0.008l0.045-0.13l0.006,0.051l0.005-0.006
			l-0.003,0.009l0.018,0.12l-0.051,0.063l0.007-0.106l-0.024,0.067l0.003,0.058l-0.038,0.048l0.039-0.026l0,0.023l0.069-0.091
			l0.003,0.017l0.026-0.019l-0.007-0.058l0.011-0.029l-0.012,0.017l-0.016-0.127l0.042-0.057l-0.01,0.155l0.104-0.27l-0.109,0.367
			l0.012-0.009l-0.002,0.008l0.122-0.104l0.025-0.18l-0.093,0.118l0.056-0.227l0.066-0.086l0.047-0.215l-0.032,0.193l0.551-0.731
			l-0.23,0.481l-0.354,0.453l-0.031,0.189l0.133-0.114l-0.025,0.053l0.06-0.041l0.409-0.444l-0.069,0.115l0.115-0.098l0.134-0.212
			l0.644-0.695l0.593-0.755l-0.463,0.614l389.924-422.008c2.728,2.654,5.479,5.386,8.178,8.119l-397.819,413.929l0.456-0.386
			l-0.557,0.49l-0.765,0.797l1.125-0.771l429.083-379.441c2.479,2.956,4.965,5.975,7.382,8.975l-437.043,371.141l1.146-0.624
			l-1.256,0.718l-0.808,0.687l-0.299,0.132l0.593-0.524l-0.513,0.321l-0.209,0.261l0.016-0.002l-0.01,0.013l0.368-0.154
			l-0.124,0.105l0.288-0.061l0.375-0.27l0.78-0.325l-0.697,0.478l-0.211,0.064l0.173-0.035l-0.049,0.031l-0.423,0.094l0.024-0.017
			l-0.276,0.053l0.2-0.021l-0.482,0.145l0.006-0.005l-0.041,0.015l0.009-0.013l-0.097,0.04l0.001-0.003l-0.001,0.001l0.017-0.032
			l-0.051,0.004l0.001-0.009l0.072-0.04l-0.072,0.031l0.006-0.032l0.037-0.007l-0.037,0.006l0.006-0.036l0.083-0.009l0.085-0.168
			l-0.015,0.01l-0.153,0.164v-0.002l-0.002,0.005h0.002l-0.021,0.04l0.012-0.002l-0.058,0.056v-0.002l-0.025,0.004l0.001,0.008
			l-0.024,0.017l0.024-0.011l0.028,0.019l-0.003,0.004l-0.021-0.001l0.004,0.017l-0.021,0.005l-0.012-0.003l0,0.007l-0.037,0.009
			l0.005-0.009l-0.037,0.039l0,0.019L330.581,1021.003z M331.615,1020.037l-0.268,0.278l0.471-0.256l0.993-0.879L331.615,1020.037z
			 M330.9,1020.987l-0.058-0.012l0.103-0.034l-0.102-0.009l-0.028,0.037h0l0.023-0.038l-0.005-0.001l0.001-0.002l0.005,0.001
			l0.031-0.032l-0.024,0.033l0.099,0.011l0.012-0.004l-0.005,0.005l0.005,0.001h-0.005L330.9,1020.987z M332.412,1020.73
			l0.615-0.184l563.962-59.242c0.388,3.894,0.743,7.843,1.054,11.735L332.412,1020.73z M329.613,1020.671l-0.302-0.141l-0.574-0.506
			l0.453,0.259L329.613,1020.671z M329.324,1020.659l-0.238-0.05l-0.243-0.173L329.324,1020.659z M332.002,1020.535l1.249-0.716
			l0.418-0.175l-0.022-0.053L827.875,736.42c1.852,3.404,3.698,6.882,5.489,10.333L332.517,1020.38L332.002,1020.535z
			 M328.705,1020.53l-0.256-0.054l-0.271-0.12L-167.854,737.67c1.859-3.438,3.777-6.9,5.699-10.292l489.225,292.173
			c-0.011,0.022-0.022,0.05-0.037,0.087l0.687,0.301L328.705,1020.53z M330.136,1020.528l-0.018-0.046l0.018-0.102v0v-0.001
			l0.008-0.051l-0.012-0.02l-0.006,0.042l-0.035-0.101l0.001-0.006l-0.022-0.096l0.024,0.056l0.003-0.045l-0.029-0.064l-0.052-1.012
			l0.123,0.483l0.005-0.092l0.03,0.234l-0.013,0.285l0.003,0.104l-0.016,0.165l-0.006-0.012l-0.006,0.042l0.008,0.022l0,0.015
			l0.004-0.013l0.025,0.058l-0.029-0.045l-0.002,0.062l0.034,0.108l-0.036-0.104L330.136,1020.528z M328.202,1020.424l-0.356-0.074
			l-541.263-173.531c1.148-3.774,2.35-7.584,3.571-11.324L328.202,1020.424z M329.698,1020.347l-0.284-0.228l-0.26-0.448
			l0.475,0.533L329.698,1020.347z M332.67,1020.333l520.76-230.757c1.506,3.58,3.002,7.238,4.447,10.872l-524.65,219.718
			L332.67,1020.333z M328.888,1020.333l-0.543-0.252L-137.33,687.411c2.165-3.193,4.399-6.418,6.641-9.586l457.962,341.305
			c-0.008,0.015-0.016,0.029-0.025,0.044l0.365,0.208L328.888,1020.333z M332,1020.303l465.269-334.012
			c2.161,3.169,4.328,6.42,6.446,9.661l-470.843,323.965L332,1020.303z M329.903,1020.252l-0.01-0.013l-0.051-0.208l0.021,0.167
			l-0.027-0.036l-0.065-0.408l0.005,0.007l-0.039-0.139l0.03,0.08l-0.016-0.104l0.033,0.139l-0.011-0.018l0.054,0.209
			L329.903,1020.252z M333.873,1020.227c-0.006-0.021-0.012-0.042-0.019-0.062l554.349-117.441
			c0.773,3.847,1.521,7.763,2.221,11.636L333.873,1020.227z M329.23,1019.999l-0.165-0.124l0.011,0.016l-0.127-0.103l-1.311-1.203
			l1.285,1.133l-1.14-1.282L329.23,1019.999z M328.877,1019.996l-0.539-0.322l-430.412-379.026c2.486-2.976,5.034-5.96,7.566-8.871
			l422.02,386.969c-0.028,0.038-0.054,0.075-0.077,0.11l0.893,0.639L328.877,1019.996z M327.358,1019.996l-520.713-228.933
			c1.516-3.633,3.095-7.31,4.694-10.934L327.358,1019.996z M329.276,1019.96l-0.583-0.806l0.292,0.328L329.276,1019.96z
			 M330.872,1019.93l0.11-0.442l-0.015,0.088l0.002-0.005l-0.071,0.317l0.014-0.106L330.872,1019.93z M330.478,1019.835l-0.01-0.351
			l0.036,0.247L330.478,1019.835z M330.971,1019.77l0.211-0.548l300.045-494.487c3.244,2.073,6.51,4.207,9.711,6.348
			l-308.795,486.84c-0.002-0.001-0.007-0.003-0.01-0.005l-0.036,0.076L330.971,1019.77z M334.812,1019.689l538.812-174.477
			c1.163,3.786,2.303,7.632,3.387,11.43L334.812,1019.689z M324.632,1019.679l-552.474-115.253c0.772-3.906,1.594-7.845,2.44-11.708
			L324.632,1019.679z M331.482,1019.518l0.29-0.576l346.79-460.433c3.015,2.392,6.047,4.849,9.013,7.3l-355.022,452.346
			c-0.015-0.009-0.027-0.018-0.041-0.026l-0.209,0.345L331.482,1019.518z M330.501,1019.325l-0.05-0.385l-0.01-0.376l0.017-0.107
			L330.501,1019.325z M330.192,1019.319l-0.029-0.127l0.082-1.205l0.009,0.06L330.192,1019.319z M329.669,1019.246l-0.109-0.325
			L329.669,1019.246z M329.731,1019.189l-0.075-0.223l-85.981-575.633c3.786-0.596,7.632-1.161,11.428-1.677L329.731,1019.189z
			 M328.528,1019.167L-62.482,597.841c2.741-2.681,5.555-5.376,8.362-8.014l382.058,428.478c-0.016,0.013-0.028,0.021-0.037,0.027
			L328.528,1019.167z M330.657,1019.126l27.511-581.869c3.809,0.19,7.665,0.421,11.461,0.688L330.813,1018.5L330.657,1019.126z
			 M329.024,1019.091L-18.907,559.342c3.038-2.423,6.14-4.843,9.217-7.196L329.024,1019.091z M330.132,1019.055l-0.149-0.645
			l-29.047-581.07c3.794-0.201,7.648-0.364,11.453-0.487L330.132,1019.055z M329.282,1018.917l-0.575-0.989L329.282,1018.917z
			 M329.426,1018.76L78.702,496.641c3.435-1.737,6.938-3.465,10.41-5.13l240.273,527.133L329.426,1018.76z M331.426,1018.582
			l0.322-0.838l248.933-521.768c3.444,1.732,6.918,3.523,10.326,5.324L331.426,1018.582z M329.493,1018.478l-0.171-0.502
			L187.035,455.301c3.709-0.989,7.482-1.952,11.215-2.864L329.493,1018.478z M330.432,1018.279l-0.025-0.898l0.039,0.809
			L330.432,1018.279z M328.648,1017.876L28.309,525.479c3.256-2.091,6.576-4.176,9.869-6.198l290.493,498.585
			C328.664,1017.87,328.655,1017.873,328.648,1017.876z M329.104,1017.686L131.791,473.153c3.602-1.376,7.269-2.733,10.898-4.032
			l186.449,548.553C329.125,1017.678,329.114,1017.682,329.104,1017.686z"/>
	</g>
	<g>
		<defs>
			<rect id="SVGID_63_" x="746.303" y="595.885" width="643.251" height="485.208"/>
		</defs>
		<clipPath id="SVGID_4_">
			<use xlink:href="#SVGID_63_"  overflow="visible"/>
		</clipPath>
		<path clip-path="url(#SVGID_4_)" d="M961.159,1461.936l-17.061-618.031l0.141,0.653l28.297,616.876
			C968.761,1461.642,964.935,1461.811,961.159,1461.936z M915.689,1461.46c-3.764-0.204-7.585-0.453-11.354-0.741l39.024-615.827
			l0.161-0.688L915.689,1461.46z M1018.073,1456.904l-73.566-613.037l0.034,0.109l84.91,611.159
			C1025.676,1455.765,1021.848,1456.36,1018.073,1456.904z M858.775,1455.215c-3.76-0.625-7.569-1.3-11.321-2.008l95.74-609.275
			l0.07-0.193L858.775,1455.215z M1074.567,1445.532L944.975,845.655l140.799,596.835
			C1082.061,1443.542,1078.29,1444.565,1074.567,1445.532z M802.478,1442.632c-3.678-1.037-7.408-2.135-11.084-3.26l151.585-594.837
			l0.139-0.39L802.478,1442.632z M1129.797,1427.891L945.504,846.778l195.182,576.826
			C1137.082,1425.07,1133.417,1426.512,1129.797,1427.891z M747.565,1423.809c-3.595-1.458-7.233-2.977-10.81-4.52l206.093-574.391
			L747.565,1423.809z M1183.066,1404.193L945.341,845.645l248.108,553.097C1190.015,1400.592,1186.521,1402.427,1183.066,1404.193z
			 M694.652,1398.932c-3.44-1.851-6.914-3.767-10.323-5.697l258.38-548.322l-0.008,0.02L694.652,1398.932z M1233.774,1374.738
			L944.53,843.6l-0.02-0.093l299.04,524.69C1240.332,1370.398,1237.042,1372.6,1233.774,1374.738z M644.449,1368.367
			c-3.24-2.215-6.502-4.495-9.698-6.781l308.486-518.151l-0.034,0.094L644.449,1368.367z M1281.324,1339.949L946.151,845.452
			l344.365,486.85C1287.482,1334.881,1284.39,1337.454,1281.324,1339.949z M597.419,1332.462c-2.999-2.545-6.014-5.158-8.963-7.767
			l354.415-481.23l-0.275,0.586L597.419,1332.462z M1325.495,1300.03l-379.21-455.173l-0.91-1.285l388.479,447.922
			C1331.107,1294.358,1328.294,1297.229,1325.495,1300.03z M554.027,1291.633c-2.729-2.84-5.474-5.757-8.159-8.666L942.13,843.686
			l-0.98,0.889l1.218-1.153l-1.34,0.984l-0.033-0.056l-426.368,401.909c-2.454-3.129-4.921-6.336-7.328-9.53l434.44-393.261
			l-0.936,0.545l1.025-0.628l0.95-0.859l0.285-0.126l-0.697,0.657l0.651-0.397l0.316-0.39l-0.052,0.086l0.029-0.005l-0.111,0.151
			l0.236-0.241l-0.016-0.002l0.016-0.017h-0.003l0.005-0.004l-0.069,0.015l-0.007-0.001l0.002-0.001l-0.006,0l-0.003,0l-0.062,0.021
			l0.009-0.014l-0.035,0.004l0.012-0.021l-0.039-0.005l-0.036,0.033l-0.159,0.018l0.111-0.062l-0.039-0.005l0.029-0.026l0.151-0.015
			l-0.016,0.014l0.125-0.049l-0.024,0.04l0.044,0.005l-0.002,0.004l0.038,0l0.001,0l0.016-0.037l-0.012,0.037h0.007l0.05-0.055
			h-0.003l0.001,0l0.002,0l0.024-0.031l0.001,0.003l0.002-0.003l0-0.004l0.011-0.009l-0.003,0l0.017-0.018l-0.033-0.041
			l-0.003,0.004l0.003,0.016l-0.006-0.01l-0.001,0.004l-0.005-0.002l-0.006,0.007l0.004-0.008l-0.031-0.018h0l-0.006,0.047
			l-0.008-0.002l0.008-0.043l-0.039,0.035l-0.016-0.004l0.012-0.016l-0.026,0.012l-0.007-0.001l-0.044,0.015l0.014-0.023
			l-0.063-0.014l0.075-0.069l-0.027-0.016l-0.095,0.073l-0.082-0.021l0.169-0.057l-0.042-0.024l-0.155,0.076l-0.003-0.001
			l-0.005,0.002l0.004-0.003l-0.027-0.006l0.13-0.069l-0.146-0.003l0.055-0.032l-0.097,0.03l-0.263-0.006l-0.298-0.073l0.324-0.073
			l0.23,0.004l-0.067-0.041l0.13-0.031l0.118,0.075l0.104,0.009l0.004-0.003l-0.004-0.003l0.011,0.001l0.042-0.025l0.062,0.021
			l0.003-0.002l-0.054-0.025l0.013-0.007l-0.173-0.068l0.082-0.018l0.1,0.079l0.027-0.015l-0.08-0.075l0.03-0.007l-0.038-0.013
			l-0.012,0.003l-0.01-0.01l-0.091-0.031l-0.012,0.001l0.063,0.05l-0.094,0.019l-0.104-0.057l-0.015,0.001l-0.112-0.052l0.053-0.006
			l-0.076-0.059l-0.359-0.115l0.006,0.003l-0.008-0.003l-0.119-0.013l0.308,0.152l-0.663-0.244l0.126,0.017l-0.128-0.079
			l0.045,0.011l-0.062-0.021l-0.136-0.082l0.412,0.156l-0.057-0.027l0.488,0.133l-0.028-0.021l0.196,0.025l0.049,0.039l-0.076-0.007
			l0.095,0.022l0.122,0.097l0.074-0.008l-0.059-0.055l0.161,0.044l0.011-0.002l0.038,0.067l-0.002,0l0.025,0.042l-0.045,0.008
			l0.037,0.014l0.019-0.004l0.014,0.016l-0.007-0.002l0.037,0.064l0.011-0.007l-0.001-0.003l0.002,0.003l0.003-0.003l-0.004-0.037
			l0.008,0.035l0.034-0.02l0.014,0.005l-0.001,0.013l0.003-0.013l0.013,0.01v-0.003l0.008,0.009l0.009-0.005l0.011,0.005
			l0.001-0.003l-0.01-0.004l0.011-0.008l-0.02-0.028l0.027-0.015l-0.031-0.041l0.014-0.002l0.021,0.04l0.009-0.006l-0.005-0.022
			l0.016,0.008l-0.011-0.026l0.024-0.005l-0.001-0.012l0.005,0.01h0.004l0.006,0.007l0.019-0.014l0.027,0.007l0.015-0.008
			l-0.005-0.006l0.008-0.002v0.005l0.007-0.004l-0.002-0.001l0.008-0.002l0,0.001l0.001-0.001h0l0.01-0.005l0.001,0.002l0.021-0.017
			l-0.016,0.003l0.001-0.007l-0.012,0.001l0.002,0.007l-0.007,0.014l-0.011-0.011l-0.001,0.001v0.011l-0.015-0.008l-0.003,0
			l-0.018-0.011l-0.002,0v-0.001l-0.033-0.017l-0.008,0.021l-0.001-0.026l-0.054-0.032l0.002-0.012l0.037-0.004l-0.035-0.003
			l0.003-0.02l0.019,0.003l-0.016-0.02v-0.005h-0.004l0,0l-0.034-0.038v0.001l-0.041-0.043l0.007,0.004l-0.047-0.097l0.062,0.047
			l0.02,0.071l-0.017-0.068l0.051,0.038l0.001-0.011l0.009,0.009l-0.001,0.01l0.005,0.004l0-0.008l0.025,0.023l-0.001-0.026
			l0.024,0.029v0.018l0.062,0.067l-0.009-0.003l0.003,0.01l0.006,0l0.007,0.004l0.006-0.006l0.021,0.02l-0.001,0.004l0.002,0.001
			h-0.003v0.003l0.008,0.014l0.003-0.006l0.015,0.019l0.004-0.008l0.01,0.008l-0.006,0.009l0.005,0.005l0.002-0.001l-0.001,0.002
			l0.001,0.003l-0.019,0.01l0.002,0.007l0.009-0.006l-0.003,0.006l0.023-0.006l0.003,0.006l0.004-0.004l-0.001-0.002l0.006-0.005
			l0.004,0.003l0.015-0.003l0.019,0.012l-0.004-0.013l0.018,0.013l0.014-0.013l0.012,0.019l-0.009,0.006l0.001,0l-0.004,0.003
			l0.01,0.006l-0.016,0.021l0.022,0.021l-0.011,0.028l-0.002-0.001l0.002,0.002l-0.001,0.004l-0.006-0.009l-0.027,0.026l-0.01-0.026
			l-0.013,0.016l-0.028-0.028l-0.001,0l0.015,0.048l-0.002,0.005l-0.032-0.037l-0.005,0.003l0.015,0.042h0l0.003,0.009l0.009-0.003
			l-0.008,0.006l0.001,0.003l-0.018,0.021l0.005,0.006l-0.018,0.017l-0.002-0.001l-0.004,0.006v0l-0.02,0.027l0.085,0.008
			l0.005-0.002l0.013,0.013l0.01-0.011l0.014,0.039l0.01-0.032l0.022,0.008l-0.02-0.017l0.013-0.003l-0.004-0.017l0,0v-0.001
			l0.011-0.027l0.019,0.009l-0.011-0.02l0.003-0.003l-0.003-0.014l0.018-0.022l0.009,0.011l0.007-0.007l-0.002,0.01l0.029,0.037
			l0.035-0.027l0.007,0.012l0.002-0.001v0.001l0.039,0.057l0-0.023l0.023,0.033l-0.007,0.007l0.004,0.007l-0.001,0.004l0.008,0.013
			l0,0l0.006,0.01l-0.001,0.001l0.001,0.006l0.002-0.004l0.002,0.002l0.002-0.006l-0.001,0.001l0.001-0.004l0.002,0.001l0.007-0.026
			l0.008,0.006l0.008-0.01l-0.004-0.006l0.008-0.003l-0.001-0.003l0.001,0l0.002,0.003l0.001-0.002v0.002l0.001,0.007l0-0.002
			l0.002,0.023l-0.002,0.002l-0.008-0.018l-0.005,0.011l0.008,0.008l-0.017,0.013l0.026,0.037l-0.022-0.007l0.022,0.024
			l-0.004,0.003l0.004,0.004v0l0.002,0.006l-0.001,0.001v0.008l-0.011,0.007l0.001,0.003l0.01-0.003l0.001,0.004l0.003-0.005
			l-0.003,0.007l0.004,0.014h-0.004l0.001,0.009l-0.002-0.001l0.002,0.008l0.001-0.001v0.001l0.002-0.002l-0.002-0.001l0.005-0.007
			l0.003,0.003l0.01-0.007l-0.011-0.001l0.007-0.011l0.007,0.01l0.004-0.004l-0.003,0.007l0.003,0.003l-0.001,0.023l0.001,0.003
			l0.012-0.008l0.022,0.033l-0.01-0.04h0.001l-0.015-0.03l0.007-0.005l-0.003-0.014l0.013,0.007l0.002-0.001l0.021,0.007
			l-0.011-0.015l0.002-0.002l0.014,0.014l-0.001,0.006l0.01,0.004l0.001-0.002l0.004,0.004l0.02-0.012l-0.021-0.008l0.001-0.011
			l0.015,0.007l-0.01-0.017l0.024-0.009l0.004,0.029l0.017-0.01l-0.002-0.024l0.009-0.002l0.017,0.013l0.029-0.018l-0.013-0.006
			l0.027-0.008l0.004,0.003l0.022-0.011l-0.002-0.001l0.026-0.017l-0.031-0.019l-0.024,0.012l-0.015-0.012l0.016-0.011l0.007,0
			l-0.004-0.002l0.073-0.035l0.035,0.008l-0.064,0.029l0.054,0.001l0.038-0.024l0.059,0.015l0.121-0.04l-0.068,0.051h0.021
			l-0.007,0.004l0.371,0.091l-0.252,0.057l-0.132-0.003l-0.109-0.069l-0.032,0.023l-0.008-0.004l-0.008,0.005l0.008,0.004
			l-0.009,0.007l-0.01-0.006l-0.048,0.029l0.008,0.006l-0.018,0l-0.01,0.006l-0.023-0.007l0.019,0.009l-0.019,0.011l0.023,0.008
			L944.302,842l0.034,0.033l-0.022,0.005l-0.018-0.033l-0.012,0.008l-0.004-0.03l-0.015,0.009l0.003,0.019l-0.011-0.015
			l-0.025,0.015l0.011,0.018l-0.026-0.009l-0.002,0.001l0.034,0.017l-0.017,0.013l-0.019-0.019l0.014,0.021l-0.001,0.001h0.001
			l-0.005,0.002v0l-0.023,0.005l-0.001-0.009l0.003-0.023l-0.009,0.004l-0.002-0.017l-0.023,0.033l0.007,0.018l-0.023,0.006
			l-0.008-0.01l-0.001,0.013l-0.01-0.005l0.002,0.007l-0.004,0.001l0.001,0.047l-0.004,0.004l0.003,0.004l-0.024,0.011l0.026,0.017
			l-0.064,0.011v-0.004l-0.006,0l0.004,0.005l-0.008,0.005l-0.005-0.009l-0.003,0l-0.011-0.023l0.014,0.013l-0.021-0.033
			l-0.008,0.005l0,0.001h-0.006l0,0l-0.003-0.004l0.001-0.004l0.003,0.004l0.007-0.017v-0.004l0.001-0.003l0.003,0.001l0.004-0.009
			l-0.001,0l0.016-0.03v-0.024l-0.027,0.048l-0.003-0.008l0.023-0.053l0.008,0.008l0.016-0.065l-0.018,0.025l-0.001-0.034
			l0.001-0.003l0.012,0.004l-0.011-0.011v-0.001l-0.004-0.007l-0.002,0.001l-0.003-0.004l-0.003,0.007l-0.011-0.004l-0.004,0.006
			l0.012,0.004l-0.022,0.039l0.003,0.004l-0.005,0.012l-0.002,0L944,842.032l-0.015-0.028l-0.02,0.017l-0.009-0.028l0.001-0.002
			l-0.006-0.01l-0.008,0.004l-0.013-0.005l0.018-0.008l0-0.003l0.028-0.01l0,0.001h0.001l0-0.002l0.015-0.012l0.006,0.002
			l0.009-0.005l-0.011-0.004l0.005-0.007l-0.039-0.015l0.028-0.026l-0.011-0.011l-0.021,0.023l-0.01-0.031l-0.018,0.006l0.011-0.029
			l-0.02-0.037l0.008,0.004l-0.003-0.011l-0.005,0.007l-0.027-0.02l-0.004,0.009l0.029,0.01l-0.019,0.024l-0.011-0.031l-0.014,0.042
			l0.007,0.009l-0.015,0.016l0.009,0.025l-0.019,0.004l0.003,0.001l-0.005,0.006l0.007,0.022h-0.014l-0.002,0.003l-0.026-0.004
			l0.002-0.002l-0.003,0.002l-0.015-0.008l-0.001,0.001l0.006,0.006l-0.022-0.001l-0.018,0.015l-0.004-0.007l-0.004,0.002
			l-0.004-0.01l-0.034,0l0.001,0.023l-0.004,0.001l0.004,0.004l-0.005-0.004l-0.007,0.003l0.012,0.006l0.006,0.073l-0.004,0.007
			l0.007-0.003l0,0.002l-0.005,0.017l0.001,0.001l-0.002-0.001l0,0.004l0.003,0.014l0.006-0.002l0.002,0.005l-0.003,0.001
			l0.019,0.035l0.01-0.017l0.005,0.003l0.005-0.004l0.006,0.007l-0.003,0.003l0.01,0.007l-0.022,0.024l0.003,0.007l-0.018-0.004
			l0.001-0.002l-0.02-0.001l0.001,0l-0.005-0.012l0.001,0.01l-0.017-0.031l-0.001,0.006l0.014,0.025l-0.014-0.004l0.001,0.008
			l-0.1,0.019l0.01,0.002l-0.011,0.033h0.027l-0.029,0.017l0.042,0.004l0.013-0.011v-0.01l0.022-0.01l-0.022,0.005l-0.001-0.019
			l0.025,0.007l-0.002,0.007l0.007-0.006l0.012,0.003l-0.022,0.014h0.019l-0.027,0.023l0.005,0.001l-0.013,0.02v-0.005l-0.009,0.011
			l0.007-0.001l-0.011,0.029l0.014-0.008l-0.001-0.021l0.058-0.019l0.007,0h0.001l0.001,0.011l-0.001,0.001h0.001l0.002,0.011
			l0.008-0.005l-0.005,0.016l0.002,0.006l0.02-0.004l-0.006-0.026l0.026-0.002l0,0.001l0.002-0.001l-0.001,0l0.043-0.004
			l-0.016-0.01l0.005-0.014l0.049,0.021l0.01-0.001l-0.008,0.004l0.008,0.01l0.007-0.001l-0.002,0.003l0.01,0.001l-0.002-0.005
			l0.023-0.005l-0.004,0.012l0.029,0.003l-0.021,0.036l-0.016-0.021l-0.003,0.007l0.002,0.004l-0.003-0.002l-0.025,0.051
			l-0.023-0.004l0.007,0.018l-0.009,0.008l0.011,0.019l-0.001,0.001l-0.011-0.02l-0.052,0.038l-0.002-0.01l-0.048,0.07l0.003,0.145
			l-0.057,0.098l-0.003-0.105l0.041-0.116l-0.044,0.063l-0.002-0.061l-0.009,0.007l-0.045,0.132l-0.007-0.055l0.017-0.051
			l-0.021,0.016l-0.006-0.038l0.066-0.097v-0.035l-0.055,0.031l-0.017,0.063l-0.001-0.011l-0.007,0.019l0.005,0.041l0.001-0.002
			l0,0.011l0.002,0.025l-0.003,0.003l-0.005,0.094l0.015-0.044l0.006,0.045l-0.021,0.031l-0.004,0.058l-0.11,0.327l0.105-0.177
			l0,0.003l0.05-0.084l0.001,0.002l-0.051,0.09l-0.006,0.114l-0.109,0.247l0.002-0.059l0.103-0.285l-0.095,0.166l0.001-0.017
			l-0.075,0.148l0.17-0.51l-0.08,0.113l0.005-0.081l-0.182,0.6l0.01-0.018l-0.079,0.309l0.031-0.197l-0.019,0.032l0.052-0.207
			l-0.011,0.034l0.041-0.257l-0.641,0.907l0.233-0.525l0.441-0.598l0.019-0.115l-0.209,0.153l0.051-0.113l-0.015,0.016l-0.051,0.108
			l-0.139,0.102l-0.276,0.307l-1.081,1.821l0.955-1.68l-0.423,0.47l-0.76,1.033l0.618-0.876l-0.713,0.793l-0.01-0.011
			L554.027,1291.633z M942.243,843.172l-1.236,1.164l1.733-1.329l0.201-0.243L942.243,843.172z M943.684,841.951l0.003,0.007
			l0.004-0.004l-0.002-0.008l0.003-0.004l0.006,0.004l0.008-0.008l0.007,0.005l-0.007-0.007l0.011-0.01l-0.011,0l0.017-0.021
			l0,0.012l0.018-0.02l-0.005-0.007l0.002-0.001l-0.015-0.019v0.013l-0.053-0.025l-0.002,0.003l-0.007-0.008l0.004-0.01
			l-0.001-0.005l0.003-0.003l0.002,0.001l0.023-0.007l-0.018-0.008l-0.007,0.008l0.002-0.009l-0.005-0.002l-0.004,0.015
			l-0.012-0.021l-0.002,0.005l-0.004-0.008l0.003,0.011l-0.003,0.006l0.006,0.007v-0.004l0.012,0.004l-0.005,0.008l0.005-0.001
			l-0.003,0.012l-0.006-0.003l0.002,0.014l-0.002,0.015l0.002,0.005l-0.002,0.001l-0.002-0.003v0.002l-0.019-0.018l-0.004,0.008
			l0.021,0.018l-0.007,0.011l0.004,0.006l-0.002,0.01l0.004,0.001l0.001-0.007l0.005,0.007l0-0.022v-0.002l0.017,0.031l-0.013,0
			l0.024,0.032L943.684,841.951z M1365.711,1255.514L946,843.786l-0.907-0.692l0.401,0.481l1.068,1.046l-0.906-0.854l0.807,0.966
			l-0.987-1.135l-0.243-0.229l-0.121-0.168l0.117,0.115l-0.514-0.576l0.044,0.034l-0.079-0.095l0.113,0.071l-0.072-0.101
			l0.098,0.119l0.403,0.256l-0.623-0.611l-0.051-0.007l-0.036-0.051l0.045,0.017l-0.008-0.008l0.214,0.07l-0.108-0.013l0.196,0.097
			l0.887,0.835l1.164,0.742l-1.062-0.645l427.408,402.647C1370.775,1249.248,1368.241,1252.417,1365.711,1255.514z M944.958,842.932
			l0.907,0.723l-0.512-0.502l-0.431-0.263L944.958,842.932z M1401.63,1206.801L947.126,844.042l461.214,352.438
			C1406.145,1199.934,1403.886,1203.406,1401.63,1206.801z M479.556,1196.712c-2.167-3.401-4.331-6.87-6.428-10.311l468.679-343.417
			l0.546-0.259L479.556,1196.712z M1433.008,1154.16L947.14,843.579c0.001-0.007,0.004-0.013,0.007-0.021l491.575,299.607
			C1436.861,1146.832,1434.939,1150.532,1433.008,1154.16z M449.2,1143.506c-1.84-3.619-3.674-7.313-5.451-10.98l498.122-289.888
			l0.354-0.07l-1.143,0.697l-0.508,0.227l0.026,0.064l0.024-0.012L449.2,1143.506z M1459.403,1098.202L947.245,843.314
			l516.837,243.282C1462.569,1090.453,1460.996,1094.357,1459.403,1098.202z M423.861,1087.089
			c-1.496-3.802-2.979-7.688-4.413-11.55L941.193,842.85l0.467-0.149L423.861,1087.089z M1480.512,1039.456l-534.377-196.73
			l-0.159-0.044l0.103,0.024l-0.583-0.216l0.118,0.056l-0.112-0.015l-0.256-0.133l0.208,0.127l-0.273-0.037l-0.16-0.128l0.175,0.02
			l-0.313-0.129l0.397,0.138l-0.005-0.003l0.013,0.004l0.328,0.112l-0.198-0.099l0.172,0.02l0.508,0.187l-0.276-0.037l0.62,0.212
			l0.547,0.15l-0.389-0.096l537.472,184.603C1482.926,1031.444,1481.729,1035.486,1480.512,1039.456z M403.846,1028.029
			c-1.151-4.014-2.279-8.091-3.353-12.12l539.528-172.684L403.846,1028.029z M1496.043,978.654L947.332,843.022
			c0.003-0.013,0.007-0.024,0.01-0.034l551.119,123.33C1497.702,970.402,1496.888,974.553,1496.043,978.654z M389.411,966.988
			c-0.774-4.125-1.518-8.309-2.21-12.438l552.488-111.471L389.411,966.988z M1505.821,916.595l-559.414-73.944l-0.592-0.203
			l561.253,61.777C1506.694,908.317,1506.274,912.48,1505.821,916.595z M380.734,904.831c-0.384-4.155-0.736-8.377-1.044-12.549
			l561.757-49.847l-0.126,0.04L380.734,904.831z M1509.803,854.316l-555.649-12.163l555.761-1.871
			c0.002,0.563,0.002,1.127,0.002,1.692C1509.917,846.074,1509.878,850.226,1509.803,854.316z M943.838,845.892l-0.043-0.914
			l0.014-0.102L943.838,845.892z M943.901,845.89l0.03-0.656l0.008,0.065L943.901,845.89z M943.958,844.984l-0.012-0.091
			l0.062-1.405l0.034,0.157L943.958,844.984z M943.78,844.637l-0.051-1.061l0.055,0.458l0.014,0.479L943.78,844.637z
			 M943.389,844.442l0.071-1.124l0.112-0.238l-0.035,0.779L943.389,844.442z M944.224,844.205l-0.132-0.561l-0.015-0.547
			l-0.024,0.381l-0.032-0.136l0.053-0.382l-0.006-0.153l0.021,0.042l0.007-0.051l-0.022-0.039l-0.006,0.034l-0.025-0.09l0.001-0.017
			l0.023,0.04l-0.019-0.123l0.004-0.12l0.008,0.022v-0.012l0.04,0.095l-0.003,0.023l0.008,0.026l-0.005,0.087l-0.016-0.036
			l-0.009,0.053l0.021,0.037v0.014l0-0.012l0.07,0.148l-0.071-0.13l-0.004,0.059l0.08,0.176L944.224,844.205z M945.447,843.852
			l-0.31-0.373l-0.244-0.426l-0.191-0.18l0.133,0.246l-0.446-0.54l0.003,0.008l-0.053-0.054l0,0.004l-0.128-0.114l0.01,0.042
			l-0.076-0.046l0.005-0.042l-0.012-0.009l0.002,0.047l-0.014-0.008l-0.003,0.019l-0.005-0.019l-0.002,0.042l-0.06-0.087l0-0.021
			l-0.003-0.001l0-0.038l-0.061-0.046l0.008,0.024l-0.021-0.035h0h0l0.001-0.01l0.071,0.042l-0.009-0.025h0.001l-0.002-0.003
			l0.01,0.002l-0.002-0.041l0.009,0.006l-0.009-0.013l0.004,0l-0.001-0.005l0.012-0.007l-0.002-0.004l0.071,0l0,0.009l0.025-0.002
			l0.001,0.008l-0.004,0.034l-0.021-0.005l0.018,0.028v0.005l0.016,0.009l0.001-0.007l0.081,0.029l-0.003-0.021l0.027,0.026
			l0.047,0.074l-0.018-0.002l0.034,0.067l-0.002-0.004l0.09,0.071l-0.03-0.067l0.312,0.317l-0.077-0.046l0.074,0.085l-0.015-0.011
			l0.148,0.165l0,0l0,0l0.22,0.254l-0.131-0.124L945.447,843.852z M943.711,843.173l-0.017-0.353l0.053-0.112l0.007,0.29
			L943.711,843.173z M941.96,842.872l0.473-0.347l0.248-0.05l-0.234,0.179L941.96,842.872z M941.693,842.628l0.58-0.259
			l-0.216,0.024l0.048-0.017l0.188-0.017l0.436-0.195l-0.01-0.001l0.079-0.028h-0.062l0.037-0.021l0.059,0.006l0.21-0.093
			l0.033,0.006l-0.062,0.029l0.075-0.026l0.005,0.001l-0.155,0.094l0.028,0.003l0.131-0.097l0.12,0.027l-0.092,0.069h-0.157
			l0.138,0.015l-0.084,0.042h0.03l-0.019,0.014l-0.039-0.004l-0.225,0.077l0.159-0.086l-0.035-0.005l0.071-0.052h-0.033
			l-0.077,0.047l-0.074-0.01l-0.043,0.02h0.102l-0.231,0.14l0.002-0.001l-0.006,0.004l-0.521,0.18l0.124-0.072l-0.332,0.144
			L941.693,842.628z M945.054,842.459l-0.212-0.053l-0.182-0.084l0.25,0.027L945.054,842.459z M944.464,842.436l-0.041-0.047
			l-0.057-0.007l-0.03-0.066l0.028,0.006l-0.032-0.036l0.031,0.003l-0.052-0.039l0.077,0.044h-0.003l0.07,0.099l-0.016-0.002
			L944.464,842.436z M943.904,842.188l-0.049-0.034l0.001,0l0.01,0.006l-0.009-0.007l0.021-0.017l-0.014,0.004l0.005-0.004h-0.017
			l0.025-0.035l-0.033,0.029l-0.002-0.005l0.017-0.045l-0.032-0.03l-0.011,0.012l-0.001-0.004l0.011-0.01l-0.008-0.006l-0.009,0.005
			l0-0.002l-0.029,0.014l0.026-0.02l-0.013-0.02l0.003-0.001l-0.002-0.005l0.001-0.004l0.008,0.006l0.014-0.005l-0.006-0.008
			l0.01,0.005l0,0.002l0.004-0.001l0.021,0.011l0.014-0.007l-0.008,0.01l0.033-0.021l0.001,0l0.001-0.003l0.004,0.009l-0.001,0
			l0.021,0.044l0.011-0.015l0.007,0.015l-0.006,0.004l0.017,0.031l0.018-0.014l0.015,0.007l-0.005-0.005l0.014-0.009l-0.003-0.008
			l0.014-0.01l-0.007,0.017l0.008-0.006l-0.007,0.024l-0.003-0.013l-0.006,0.012l0.009,0.004l-0.004,0.004l-0.005-0.007l0,0.003
			l0.004,0.005l-0.026,0.038v0.002v0l0,0.001l-0.013,0.022l0.001,0.002l-0.009,0.021l-0.007-0.011l-0.007,0.009l-0.037-0.009
			l0.027,0.017L943.904,842.188z M940.176,842.135H377.831v-0.297c0-3.958,0.035-7.966,0.104-11.915l562.241,11.779l0.001-0.61
			l-559.549-61.071c0.376-4.158,0.797-8.354,1.248-12.472l558.301,73.447v-0.118c0,0.04,0,0.079,0,0.118l1.703,0.223l0.249,0.086
			l-1.952-0.213c0,0.204,0,0.407,0,0.61l1.143,0.023l0.255-0.028l0.098,0.021l-0.126,0.012l0.196,0.004l0.497,0.111l-0.208,0.043
			l-1.625-0.036l1.167,0.129l-0.09,0.019l-1.251-0.151l-0.051,0.005l0.043-0.005l-0.047,0
			C940.176,841.943,940.176,842.039,940.176,842.135z M942.416,842.124l-0.752-0.1l0.097-0.021l0.77,0.085L942.416,842.124z
			 M947.573,842.009l-1.071-0.023l0.718-0.063l0.338,0.044l0.006-0.069l-0.034-0.003l0.043-0.004L947.573,842.009z M945.983,841.956
			l-0.346-0.077l0.279-0.058l0.876,0.044L945.983,841.956z M942.422,841.808l-0.264-0.065l0.529,0.012L942.422,841.808z
			 M942.964,841.699l-0.137-0.083l-0.871,0.078l-0.109-0.027l0.898-0.1l-0.182-0.11l0.289,0.098l0.047-0.006l0.09,0.053h-0.001
			l0.006,0.002l0.106,0.067L942.964,841.699z M944.585,841.698l0.063-0.04l-0.028-0.006l0.099-0.046l-0.121,0.041l-0.064-0.015
			l0.072-0.055l0.134,0.018l0.009-0.004l-0.141-0.016l0.217-0.14l-0.039,0.003l0.156-0.12l0.32-0.036l0.09-0.055l-0.065,0.047
			l0.345-0.119l-0.243,0.049l0.063-0.04l0.371-0.084l-0.007,0.004l0.07-0.018l0.465-0.161l-0.252,0.112l0.927-0.209l-0.441,0.152
			l-0.655,0.132l-0.335,0.151l0.25-0.029l-1.001,0.383l-0.036-0.003l-0.013,0.006l0.039,0.005l-0.095,0.07l-0.075-0.017
			L944.585,841.698z M944.104,841.625l-0.004-0.019l-0.008,0.011l0.001-0.032l-0.031,0.01l-0.011-0.02l0.039-0.018l-0.002-0.004
			l-0.039,0.02l-0.005-0.009l0.029-0.035l-0.015-0.003l0.004-0.011h-0.001l0.004-0.009l0.002,0.001l0.005-0.005l-0.006,0.001
			l0.007-0.02v-0.005l0.005-0.006l-0.006,0l-0.005-0.02l-0.035,0.027l-0.001-0.017l-0.032,0.022v-0.002l-0.02,0.011l0.013,0.002
			l0.002,0l0.001,0.002l-0.001,0.002l0.002,0.008l-0.005,0l-0.006,0.002l-0.02-0.005v-0.001l-0.002,0.001l-0.005-0.001l0.01-0.009
			l0-0.001l-0.014,0.006l0.002,0.003l-0.005,0l-0.001,0l-0.011-0.003l-0.008,0.001v0.001l-0.007,0.009l0.011-0.002l0.001,0.004
			l-0.015,0.006l-0.002-0.002l0,0.002l-0.005-0.003l-0.018,0.001l0.015-0.003l-0.011-0.007l0.001,0l-0.001,0l-0.055-0.016
			l0.017,0.024l-0.023,0.004l-0.006-0.018l0.01-0.01h-0.001l0.003-0.002l0,0.002l0.013-0.01h-0.001l0.002-0.001l-0.003-0.001
			l0.003,0.001l0.023-0.016l-0.012-0.016l0.002-0.003l-0.006-0.005l0.028-0.025l0.009,0.021l0.015-0.001l0.001,0.001l0.021-0.005
			l-0.004-0.007l0.02-0.014l-0.025-0.046l0.024-0.035l0.014,0.061l-0.005,0.014l0.008-0.005l0.003,0.016l0.054-0.058l-0.001-0.035
			l0.007-0.021l-0.008-0.069l-0.003,0.01l-0.002-0.007l0.005-0.006l-0.003-0.12L944,841.146l-0.011-0.056l-0.06,0.129l0.008,0.035
			l-0.036,0.06l-0.008-0.016l-0.007,0.013l-0.013-0.028l0.005-0.01l-0.023-0.043l0.054-0.098l0.011,0.047l0.061-0.134l-0.006-0.028
			l0.044-0.078l-0.012-0.43l0.036-0.14l0.012,0.084l0.019,0.387l0.025-0.062l0.003,0.015l0.03-0.067l-0.001-0.016l0.003-0.006
			l0.037-0.836l0.146-0.575l-0.073,1.162l0.252-0.563l83.933-611.524c3.767,0.622,7.581,1.294,11.335,1.998l-95.226,609.431
			l0.013-0.029l-0.017,0.052l0.048-0.14l-0.015,0.045l0.018-0.056l140.17-598.774c3.692,1.039,7.429,2.133,11.107,3.255
			L944.656,839.451l195.025-579.79c3.592,1.453,7.226,2.966,10.795,4.501L945.14,838.116c-0.001,0-0.002-0.001-0.003-0.001
			l-0.524,1.513l0.059-0.134l-0.161,0.485l0.007-0.028l-0.054,0.158l0.006-0.042l-0.07,0.15l0.087-0.275l-0.221,0.561l0.057-0.103
			l-0.099,0.336l0.204-0.521l-0.265,0.787l-0.007-0.062l0.043-0.129l-0.049,0.083l-0.001-0.008l-0.027,0.058l0.007-0.148
			l-0.022,0.045l0.014,0.103l-0.042,0.072l0.003,0.062l-0.053,0.148l0.056-0.079l0,0.007l0.045-0.138l0.007,0.054l0.004-0.005
			l-0.003,0.01l0.018,0.126l-0.05,0.067l0.006-0.112l-0.024,0.07l0.003,0.062l-0.038,0.052l0.038-0.028l0.001,0.024l0.068-0.096
			l0.003,0.018l0.026-0.02l-0.007-0.062l0.011-0.03l-0.011,0.017l-0.016-0.134l0.042-0.061l-0.01,0.165l0.103-0.286l-0.108,0.389
			l0.012-0.009l-0.003,0.009l0.122-0.11l0.025-0.192l-0.093,0.126l0.056-0.24l0.065-0.092l0.047-0.227l-0.032,0.204l0.547-0.776
			l-0.229,0.511l-0.353,0.48l-0.031,0.201l0.132-0.12l-0.025,0.056l0.059-0.043l0.408-0.471l-0.069,0.122l0.115-0.104l0.133-0.226
			l0.64-0.737l0.589-0.801l-0.459,0.651l387.479-447.815c2.71,2.817,5.444,5.716,8.126,8.616L946.131,839.49l0.453-0.41
			l-0.553,0.521l-0.76,0.845l1.118-0.818l426.392-402.644c2.465,3.137,4.935,6.34,7.337,9.524L945.815,840.342l1.139-0.662
			l-1.248,0.761l-0.803,0.729l-0.297,0.14l0.589-0.556l-0.51,0.341l-0.208,0.276l0.016-0.002l-0.01,0.014l0.365-0.163l-0.123,0.111
			l0.287-0.065l0.373-0.286l0.774-0.345l-0.692,0.507l-0.21,0.067l0.171-0.038l-0.048,0.035l-0.421,0.099l0.023-0.018l-0.273,0.057
			l0.199-0.023l-0.479,0.154l0.007-0.006l-0.041,0.017l0.009-0.014l-0.096,0.042l0.001-0.002l-0.001,0l0.017-0.033l-0.051,0.005
			l0.002-0.01l0.072-0.043l-0.072,0.034l0.006-0.035l0.037-0.007l-0.037,0.007l0.005-0.038l0.083-0.01l0.084-0.178l-0.016,0.01
			l-0.152,0.174v-0.001l-0.002,0.005h0.002l-0.02,0.042l0.013-0.003l-0.058,0.06v-0.002l-0.025,0.005v0.008l-0.022,0.018
			l0.024-0.011l0.027,0.019l-0.003,0.006l-0.022-0.002l0.004,0.018l-0.02,0.006l-0.012-0.003l0,0.007l-0.036,0.011l0.004-0.011
			l-0.037,0.041l0.001,0.02L944.104,841.625z M945.131,840.6l-0.265,0.295l0.466-0.272l0.988-0.933L945.131,840.6z M944.42,841.609
			l-0.057-0.013l0.102-0.036l-0.1-0.01l-0.028,0.04h-0.001l0.023-0.041l-0.005-0.001l0.001-0.002l0.006,0.001l0.029-0.034
			l-0.023,0.035l0.099,0.012l0.011-0.004l-0.005,0.005h0.005h-0.005L944.42,841.609z M945.922,841.336l0.612-0.195l560.427-62.865
			c0.386,4.132,0.738,8.323,1.047,12.453L945.922,841.336z M943.143,841.272l-0.3-0.149l-0.57-0.537l0.45,0.275L943.143,841.272z
			 M942.855,841.26l-0.237-0.053l-0.241-0.184L942.855,841.26z M945.516,841.128l1.242-0.759l0.415-0.186l-0.021-0.055
			l491.129-300.488c1.841,3.612,3.675,7.302,5.455,10.964L946.028,840.964L945.516,841.128z M942.24,841.123l-0.255-0.057
			l-0.27-0.127L448.793,540.967c1.847-3.649,3.753-7.322,5.664-10.921l486.157,310.039c-0.01,0.023-0.022,0.053-0.037,0.091
			l0.683,0.321L942.24,841.123z M943.661,841.122l-0.017-0.048l0.017-0.109v0.001v-0.002l0.008-0.054l-0.012-0.021l-0.006,0.044
			l-0.034-0.106l0-0.007l-0.022-0.102l0.023,0.059l0.004-0.047l-0.03-0.068l-0.051-1.074l0.121,0.512l0.005-0.098l0.03,0.249
			l-0.013,0.303l0.003,0.11l-0.017,0.174l-0.005-0.013l-0.006,0.044l0.009,0.023l-0.001,0.018l0.003-0.014l0.026,0.062l-0.029-0.048
			l-0.002,0.065l0.034,0.114l-0.036-0.109L943.661,841.122z M941.74,841.011l-0.354-0.079L403.518,656.791
			c1.141-4.004,2.333-8.048,3.548-12.017L941.74,841.011z M943.226,840.929l-0.282-0.242l-0.259-0.475l0.472,0.565L943.226,840.929z
			 M946.181,840.914l517.494-244.868c1.496,3.798,2.984,7.681,4.419,11.537l-521.36,233.153L946.181,840.914z M942.421,840.914
			l-0.54-0.269L479.126,487.634c2.152-3.389,4.372-6.811,6.6-10.173l455.091,362.176c-0.009,0.016-0.016,0.031-0.025,0.047
			l0.362,0.221L942.421,840.914z M945.513,840.882l462.353-354.437c2.147,3.363,4.301,6.812,6.405,10.252L946.381,840.473
			L945.513,840.882z M943.43,840.828l-0.01-0.012l-0.051-0.221l0.022,0.178l-0.027-0.039l-0.064-0.434l0.005,0.008l-0.039-0.148
			l0.03,0.086l-0.016-0.111l0.033,0.147l-0.011-0.019l0.055,0.221L943.43,840.828z M947.375,840.803
			c-0.006-0.023-0.012-0.045-0.019-0.066l550.873-124.623c0.769,4.082,1.512,8.237,2.207,12.348L947.375,840.803z M942.761,840.559
			l-0.164-0.131l0.012,0.017l-0.127-0.109l-1.303-1.276l1.277,1.202l-1.133-1.36L942.761,840.559z M942.412,840.557l-0.536-0.342
			L514.162,438.011c2.471-3.158,5.002-6.325,7.518-9.414l419.375,410.632c-0.028,0.041-0.053,0.08-0.077,0.117l0.887,0.679
			L942.412,840.557z M940.901,840.557L423.453,597.625c1.507-3.855,3.076-7.757,4.665-11.603L940.901,840.557z M942.808,840.519
			l-0.58-0.855l0.291,0.347L942.808,840.519z M944.393,840.486l0.108-0.468l-0.015,0.093l0.003-0.005l-0.071,0.336l0.015-0.113
			L944.393,840.486z M944.001,840.387l-0.01-0.373l0.036,0.262L944.001,840.387z M944.491,840.318l0.209-0.583l298.166-524.726
			c3.222,2.2,6.468,4.465,9.649,6.737l-306.859,516.61c-0.002-0.002-0.006-0.004-0.009-0.005l-0.037,0.08L944.491,840.318z
			 M948.308,840.231l535.434-185.146c1.157,4.018,2.29,8.099,3.366,12.129L948.308,840.231z M938.192,840.221L389.182,717.919
			c0.767-4.145,1.584-8.325,2.425-12.424L938.192,840.221z M945,840.05l0.288-0.612l344.616-488.588
			c2.996,2.538,6.009,5.145,8.957,7.747L946.062,838.604c-0.014-0.01-0.027-0.019-0.04-0.027l-0.208,0.365L945,840.05z
			 M944.025,839.844l-0.049-0.408l-0.012-0.399l0.017-0.113L944.025,839.844z M943.718,839.839l-0.029-0.135l0.081-1.28l0.009,0.063
			L943.718,839.839z M943.199,839.76l-0.109-0.345L943.199,839.76z M943.26,839.7l-0.075-0.236l-85.443-610.833
			c3.763-0.632,7.584-1.232,11.356-1.779L943.26,839.7z M942.065,839.676l-388.56-447.089c2.725-2.845,5.52-5.705,8.309-8.503
			l379.662,454.679c-0.015,0.013-0.027,0.022-0.035,0.029L942.065,839.676z M944.179,839.634l27.339-617.45
			c3.785,0.201,7.618,0.446,11.39,0.73l-38.574,616.055L944.179,839.634z M942.557,839.596L596.806,351.734
			c3.02-2.571,6.102-5.14,9.16-7.636L942.557,839.596z M943.658,839.558l-0.148-0.684l-28.865-616.603
			c3.77-0.213,7.6-0.386,11.381-0.517L943.658,839.558z M942.813,839.412l-0.571-1.049L942.813,839.412z M942.957,839.245
			L693.805,285.199c3.413-1.844,6.894-3.677,10.343-5.445l238.768,559.367L942.957,839.245z M944.943,839.056l0.32-0.889
			l247.372-553.674c3.422,1.838,6.875,3.738,10.262,5.649L944.943,839.056z M943.022,838.946l-0.169-0.534L801.457,241.331
			c3.687-1.05,7.436-2.071,11.145-3.04L943.022,838.946z M943.956,838.733l-0.025-0.952l0.038,0.858L943.956,838.733z
			 M942.185,838.308L643.728,315.8c3.235-2.218,6.535-4.432,9.806-6.577l288.672,529.073
			C942.199,838.301,942.19,838.304,942.185,838.308z M942.636,838.105L746.56,260.274c3.58-1.46,7.224-2.899,10.83-4.277
			l185.28,582.096C942.657,838.097,942.646,838.101,942.636,838.105z"/>
	</g>
</g>
<g id="Guides" display="none">
</g>
</svg>
